<svg xmlns="http://www.w3.org/2000/svg" width="74" height="71.855" viewBox="0 0 74 71.855">
  <g id="Group_6" data-name="Group 6" transform="translate(-16.5 -300)">
    <g id="твиттер" transform="translate(16.5 300)">
      <path id="Path_16" data-name="Path 16" d="M55.427,0H18.573A18.706,18.706,0,0,0,0,18.837V53.018A18.706,18.706,0,0,0,18.573,71.855H55.427A18.706,18.706,0,0,0,74,53.018V18.837A18.706,18.706,0,0,0,55.427,0Z" fill="#e9d165"/>
    </g>
    <path id="icons8-twitter" d="M50.061,10.438a20.646,20.646,0,0,1-5.908,1.62A10.311,10.311,0,0,0,48.676,6.37a20.6,20.6,0,0,1-6.531,2.493,10.287,10.287,0,0,0-17.519,9.378A29.2,29.2,0,0,1,3.429,7.5,10.3,10.3,0,0,0,6.612,21.229a10.229,10.229,0,0,1-4.657-1.288v.131A10.293,10.293,0,0,0,10.2,30.156a10.287,10.287,0,0,1-4.645.174,10.307,10.307,0,0,0,9.607,7.143,20.626,20.626,0,0,1-12.77,4.4A20.623,20.623,0,0,1-.06,41.728,29.086,29.086,0,0,0,15.7,46.347c18.915,0,29.26-15.668,29.26-29.252,0-.448-.011-.894-.03-1.332A20.893,20.893,0,0,0,50.061,10.438Z" transform="translate(28.499 309.946)" fill="#ff3f7b"/>
  </g>
</svg>
