<svg xmlns="http://www.w3.org/2000/svg" width="200" height="67" viewBox="0 0 200 67">
  <g id="Group_1" data-name="Group 1" transform="translate(-93 -177)">
    <g id="Path_1" data-name="Path 1" transform="translate(93 177)" fill="#1c4771">
      <path d="M 166.5 66.5 L 33.5 66.5 C 29.0447998046875 66.5 24.7231502532959 65.62754821777344 20.65505027770996 63.90689849853516 C 16.72550010681152 62.24485015869141 13.19629955291748 59.86534881591797 10.1654748916626 56.83452606201172 C 7.134650230407715 53.8036994934082 4.755149841308594 50.27450180053711 3.093100070953369 46.34495162963867 C 1.372449994087219 42.27685165405273 0.5 37.9552001953125 0.5 33.5 C 0.5 29.0447998046875 1.372449994087219 24.7231502532959 3.093100070953369 20.65505027770996 C 4.755149841308594 16.72550010681152 7.134650230407715 13.19629955291748 10.1654748916626 10.1654748916626 C 13.19629955291748 7.134650230407715 16.72550010681152 4.755149841308594 20.65505027770996 3.093100070953369 C 24.7231502532959 1.372449994087219 29.0447998046875 0.5 33.5 0.5 L 166.5 0.5 C 170.9552001953125 0.5 175.27685546875 1.372449994087219 179.3449554443359 3.093100070953369 C 183.2745056152344 4.755149841308594 186.8036956787109 7.134650230407715 189.8345184326172 10.1654748916626 C 192.8653564453125 13.19629955291748 195.2448425292969 16.72550010681152 196.9069061279297 20.65505027770996 C 198.6275482177734 24.7231502532959 199.5 29.0447998046875 199.5 33.5 C 199.5 37.9552001953125 198.6275482177734 42.27685165405273 196.9069061279297 46.34495162963867 C 195.2448425292969 50.27450180053711 192.8653564453125 53.8036994934082 189.8345184326172 56.83452606201172 C 186.8036956787109 59.86534881591797 183.2745056152344 62.24485015869141 179.3449554443359 63.90689849853516 C 175.27685546875 65.62754821777344 170.9552001953125 66.5 166.5 66.5 Z" stroke="none"/>
      <path d="M 33.5 1 C 29.11207580566406 1 24.85594177246094 1.859161376953125 20.84983825683594 3.553604125976562 C 16.97987365722656 5.190448760986328 13.50407409667969 7.533946990966797 10.51902770996094 10.51902770996094 C 7.533950805664062 13.50407791137695 5.190444946289062 16.9798698425293 3.553604125976562 20.8498420715332 C 1.859161376953125 24.8559455871582 1 29.11207962036133 1 33.5 C 1 37.88792037963867 1.859161376953125 42.14405059814453 3.553604125976562 46.1501579284668 C 5.190444946289062 50.02013397216797 7.533950805664062 53.49592208862305 10.51902770996094 56.48097229003906 C 13.50407409667969 59.4660530090332 16.97987365722656 61.80955123901367 20.84983825683594 63.44639587402344 C 24.85594177246094 65.14083862304688 29.11207580566406 66 33.5 66 L 166.5 66 C 170.8879241943359 66 175.1440277099609 65.14083862304688 179.1501617431641 63.44639587402344 C 183.0201110839844 61.80955123901367 186.4958953857422 59.4660530090332 189.4809722900391 56.48097229003906 C 192.4660339355469 53.49592208862305 194.8095550537109 50.02013397216797 196.4463958740234 46.1501579284668 C 198.1408386230469 42.14405059814453 199 37.88792037963867 199 33.5 C 199 29.11207962036133 198.1408386230469 24.8559455871582 196.4463958740234 20.8498420715332 C 194.8095550537109 16.9798698425293 192.4660339355469 13.50407791137695 189.4809722900391 10.51902770996094 C 186.4958953857422 7.533946990966797 183.0201110839844 5.190448760986328 179.1501617431641 3.553604125976562 C 175.1440277099609 1.859161376953125 170.8879241943359 1 166.5 1 L 33.5 1 M 33.5 0 L 166.5 0 C 185.0015258789062 0 200 14.99844741821289 200 33.5 C 200 52.00155258178711 185.0015258789062 67 166.5 67 L 33.5 67 C 14.99844360351562 67 0 52.00155258178711 0 33.5 C 0 14.99844741821289 14.99844360351562 0 33.5 0 Z" stroke="none" fill="#707070"/>
    </g>
    <path id="Path_2" data-name="Path 2" d="M6.342-4.931h-2.3V0H1.361V-11.9H4.042v4.731H6.392a5.914,5.914,0,0,1,1.868-3.607A5.414,5.414,0,0,1,11.986-12.1a5.117,5.117,0,0,1,3.98,1.66,6.307,6.307,0,0,1,1.507,4.408,6.456,6.456,0,0,1-1.561,4.541A5.321,5.321,0,0,1,11.8.208,5.2,5.2,0,0,1,8.1-1.187,5.827,5.827,0,0,1,6.342-4.931Zm5.611-4.864a2.447,2.447,0,0,0-2.1,1.013,4.678,4.678,0,0,0-.743,2.814A4.892,4.892,0,0,0,9.824-3.1a2.337,2.337,0,0,0,2.021.992A2.421,2.421,0,0,0,13.9-3.088a4.594,4.594,0,0,0,.735-2.8,5.064,5.064,0,0,0-.7-2.889A2.263,2.263,0,0,0,11.953-9.795ZM33.012,0H30.364V-7.122q0-1.154.1-2.548H30.4a12.539,12.539,0,0,1-.374,1.577L27.235,0H25.043L22.2-8.01a15.587,15.587,0,0,1-.374-1.66h-.075q.108,1.76.108,3.088V0H19.449V-11.9h3.926l2.432,7.056a9.934,9.934,0,0,1,.423,1.7h.05a17.135,17.135,0,0,1,.473-1.718L29.186-11.9h3.827Zm7.736.208a5.541,5.541,0,0,1-4.167-1.664,5.975,5.975,0,0,1-1.61-4.337,6.4,6.4,0,0,1,1.635-4.565A5.662,5.662,0,0,1,40.939-12.1a5.4,5.4,0,0,1,4.121,1.668,6.151,6.151,0,0,1,1.573,4.4A6.3,6.3,0,0,1,45-1.511,5.6,5.6,0,0,1,40.749.208Zm.116-10a2.7,2.7,0,0,0-2.241,1.058,4.413,4.413,0,0,0-.83,2.8,4.332,4.332,0,0,0,.83,2.8A2.66,2.66,0,0,0,40.8-2.108a2.686,2.686,0,0,0,2.2-1,4.284,4.284,0,0,0,.813-2.777,4.642,4.642,0,0,0-.789-2.88A2.571,2.571,0,0,0,40.865-9.795ZM59.317,0H56.611L51.706-7.479a10.815,10.815,0,0,1-.6-.988h-.033q.066.631.066,1.926V0H48.609V-11.9H51.5l4.723,7.247q.324.49.6.971h.033a12.727,12.727,0,0,1-.066-1.635V-11.9h2.532Zm9.861,0H62.04V-11.9H68.9V-9.72H64.721v2.648h3.893V-4.9H64.721v2.723h4.458ZM80.061-11.9l-3.876,7.67V0H73.5V-4.184L69.727-11.9H72.79l1.917,4.441q.05.125.274.971h.033a4.324,4.324,0,0,1,.257-.938L77.222-11.9Zm12.41,0-5.8,13.879H84.328L90.1-11.9ZM6.342,17.069h-2.3V22H1.361V10.1H4.042v4.731H6.392a5.914,5.914,0,0,1,1.868-3.607A5.414,5.414,0,0,1,11.986,9.9a5.117,5.117,0,0,1,3.98,1.66,6.307,6.307,0,0,1,1.507,4.408,6.456,6.456,0,0,1-1.561,4.541,5.321,5.321,0,0,1-4.117,1.7,5.2,5.2,0,0,1-3.7-1.395A5.827,5.827,0,0,1,6.342,17.069Zm5.611-4.864a2.447,2.447,0,0,0-2.1,1.013,4.678,4.678,0,0,0-.743,2.814,4.892,4.892,0,0,0,.71,2.868,2.337,2.337,0,0,0,2.021.992,2.421,2.421,0,0,0,2.054-.979,4.594,4.594,0,0,0,.735-2.8,5.064,5.064,0,0,0-.7-2.889A2.263,2.263,0,0,0,11.953,12.205ZM33.012,22H30.364V14.878q0-1.154.1-2.548H30.4a12.539,12.539,0,0,1-.374,1.577L27.235,22H25.043L22.2,13.99a15.587,15.587,0,0,1-.374-1.66h-.075q.108,1.76.108,3.088V22H19.449V10.1h3.926l2.432,7.056a9.934,9.934,0,0,1,.423,1.7h.05a17.135,17.135,0,0,1,.473-1.718L29.186,10.1h3.827Zm13.173,0H43.264l-.847-2.648H38.184L37.345,22H34.44l4.333-11.9h3.179ZM41.8,17.293l-1.278-4a5.214,5.214,0,0,1-.2-1.071h-.066a4.54,4.54,0,0,1-.208,1.038l-1.295,4.034ZM57.973,22H55.283V17.152H50.353V22H47.671V10.1h2.681v4.748h4.931V10.1h2.689ZM71.4,22H68.872V15.459a18.982,18.982,0,0,1,.083-1.926H68.9q-.174.34-.6.988L63.393,22H60.7V10.1h2.532v6.583a12.727,12.727,0,0,1-.066,1.635h.033q.042-.1.614-.971L68.531,10.1H71.4Z" transform="translate(129 207)" fill="#fff"/>
  </g>
</svg>
