<svg xmlns="http://www.w3.org/2000/svg" xmlns:xlink="http://www.w3.org/1999/xlink" width="396.02" height="299" viewBox="0 0 396.02 299">
  <defs>
    <linearGradient id="linear-gradient" x1="0.5" x2="0.5" y2="1" gradientUnits="objectBoundingBox">
      <stop offset="0" stop-color="#474747" stop-opacity="0.58"/>
      <stop offset="1" stop-color="#0e0e0e" stop-opacity="0.588"/>
    </linearGradient>
    <clipPath id="clip-path">
      <rect id="Rectangle_8" data-name="Rectangle 8" width="336" height="219" rx="16" transform="translate(-0.02)" fill="none"/>
    </clipPath>
    <clipPath id="clip-path-2">
      <rect id="Rectangle_7" data-name="Rectangle 7" width="763.94" height="445.27" transform="translate(-213.99 -159.18)" fill="none"/>
    </clipPath>
    <clipPath id="clip-path-3">
      <rect id="Rectangle_6" data-name="Rectangle 6" width="765.64" height="721.59" transform="translate(-216.35 -328.51)" fill="none"/>
    </clipPath>
  </defs>
  <g id="Group_162" data-name="Group 162" transform="translate(-16 -325)">
    <path id="Path_481" data-name="Path 481" d="M15,0H321.02a15,15,0,0,1,15,15V224a15,15,0,0,1-15,15H15A15,15,0,0,1,0,224V15A15,15,0,0,1,15,0Z" transform="translate(46 355)" fill="url(#linear-gradient)"/>
    <g id="Group_160" data-name="Group 160" transform="translate(7.005 36)">
      <rect id="Rectangle_16" data-name="Rectangle 16" width="336.02" height="219" rx="15" transform="translate(39 319)" fill="#fff"/>
      <g id="Group_19" data-name="Group 19" transform="translate(-524.995 -38.5)">
        <g id="Монтажная_область_1_2_" data-name="Монтажная область 1 (2)" transform="translate(564.01 357.5)">
          <rect id="Rectangle_5" data-name="Rectangle 5" width="336" height="219" rx="16" fill="#2fb56a"/>
          <g id="Group_17" data-name="Group 17" clip-path="url(#clip-path)">
            <g id="Group_16" data-name="Group 16" clip-path="url(#clip-path-2)">
              <g id="Group_15" data-name="Group 15" clip-path="url(#clip-path-3)">
                <g id="Group_14" data-name="Group 14">
                  <path id="Path_77" data-name="Path 77" d="M148.71,6.33c-17.28-7.71-32.53-38.01-31.93-43.04.6-4.98,4.46-11.45,12.34-9.3s10.84,19.58,29.14,27.69,35.78.12,40.77,3.78,5.98,7.96,2.68,11.72a38.457,38.457,0,0,1-8.18,7.04c-8.01,5.13-27.54,9.82-44.82,2.11Z" fill="#00e5ff" stroke="#000" stroke-miterlimit="10" stroke-width="1"/>
                  <path id="Path_78" data-name="Path 78" d="M-52.52,33.32c-.75-.55-1.5-1.13-2.26-1.72C-68.1,21.12-75.38,9.32-76.44-3.47a38.551,38.551,0,0,1,3.65-19.71c2.3-4.89,8.44-10.18,15.76-5.32s4.3,17.3,4.91,23.28C-51.4,1.87-44.97,8.3-39.7,12.44c9.02,7.09,17.48,10.14,24.45,8.78,5-.97,15.09.68,18.94,6.11s3.4,10.15-1.24,12.88A41.061,41.061,0,0,1-8.29,44.62c-9.92,2.53-25.49,2.5-44.22-11.32Z" fill="#00e5ff" stroke="#000" stroke-miterlimit="10" stroke-width="1"/>
                  <path id="Path_79" data-name="Path 79" d="M60.19,2.81c-.75-.55-1.5-1.13-2.26-1.72C44.61-9.39,37.33-21.19,36.27-33.98a38.551,38.551,0,0,1,3.65-19.71c2.3-4.89,8.44-10.18,15.76-5.32s4.3,17.3,4.91,23.28c.72,7.09,7.15,13.52,12.42,17.66,9.02,7.09,17.48,10.14,24.45,8.78,5-.97,15.09.68,18.94,6.11s3.4,10.15-1.24,12.88a41.061,41.061,0,0,1-10.74,4.41C94.5,16.64,78.93,16.61,60.2,2.79Z" fill="#00e5ff" stroke="#000" stroke-miterlimit="10" stroke-width="1"/>
                  <path id="Path_80" data-name="Path 80" d="M-9.64,259.4c-4.15-12.94-4.5-20.41-.5-28.5A28.086,28.086,0,0,1-.75,220.2c3.18-2.18,8.86-3.32,11.57,2.07S3.51,239.6,6.54,252.88s24.8,15.81,20.26,26.66-32.28-7.2-36.43-20.14Z" fill="#00e5ff" stroke="#000" stroke-miterlimit="10" stroke-width="1"/>
                  <path id="Path_81" data-name="Path 81" d="M-13.74,196.51C-28,183.61-33.8,174.82-34.82,162.37a37.648,37.648,0,0,1,3.55-19.19c2.24-4.76,8.21-9.91,15.34-5.18s3.7,25.82,16.87,39.86,41.05,2.64,43.41,18.79S.53,209.4-13.74,196.5Z" fill="#00e5ff" stroke="#000" stroke-miterlimit="10" stroke-width="1"/>
                  <path id="Path_82" data-name="Path 82" d="M86.53,104.21c-.75-.55-1.5-1.13-2.26-1.72C70.95,92.01,63.67,80.21,62.61,67.42a38.551,38.551,0,0,1,3.65-19.71c2.3-4.89,8.44-10.18,15.76-5.32s4.3,17.3,4.91,23.28c.72,7.09,7.15,13.52,12.42,17.66,9.02,7.09,17.48,10.14,24.45,8.78,5-.97,15.09.68,18.94,6.11s3.4,10.15-1.24,12.88a41.061,41.061,0,0,1-10.74,4.41c-9.92,2.53-25.49,2.5-44.22-11.32Z" fill="#00e5ff" stroke="#000" stroke-miterlimit="10" stroke-width="1"/>
                  <path id="Path_83" data-name="Path 83" d="M175.6,127.88c-.55-.63-1.09-1.28-1.64-1.96-9.65-11.79-14.18-23.17-13.47-33.81A28.56,28.56,0,0,1,165.91,77c2.51-3.44,8.18-6.18,13.6-.44s1.4,15.11,1.16,20.12c-.28,5.93,4.21,12.74,8.03,17.41,6.53,7.98,13.11,12.54,19,13.16,4.23.44,12.31,4.27,14.81,9.63s1.55,9.08-2.61,10.15a31.6,31.6,0,0,1-9.37.94c-8.46-.39-21.25-4.25-34.93-20.09Z" fill="#00e5ff" stroke="#000" stroke-miterlimit="10" stroke-width="1"/>
                  <path id="Path_84" data-name="Path 84" d="M46.65,104.17c.19.91.36,1.84.53,2.79,2.89,16.7.41,30.34-7.36,40.55a38.63,38.63,0,0,1-15.89,12.21c-4.98,2.09-13.08,1.92-15.27-6.58s8.37-15.74,11.92-20.59c4.2-5.75,3.72-14.83,2.58-21.44-1.96-11.3-6.21-19.23-12.3-22.88C6.5,85.61.11,77.63.88,71.02s4.26-9.82,9.54-8.75a41.7,41.7,0,0,1,10.94,3.9c9.06,4.75,20.62,15.19,25.3,37.99Z" fill="#00e5ff" stroke="#000" stroke-miterlimit="10" stroke-width="1"/>
                  <path id="Path_85" data-name="Path 85" d="M-60.61,100.44c.92-.44,1.87-.87,2.84-1.3,17.05-7.48,32.26-8.44,45.2-2.84A42.48,42.48,0,0,1,4.65,110.03c3.58,4.8,5.5,13.44-3,18.02s-18.99-4.78-25.11-7.29c-7.24-2.97-16.8-.06-23.55,2.9-11.54,5.07-18.88,11.69-21.17,19.15-1.64,5.35-8.47,14.27-15.72,15.2s-11.6-1.95-11.84-7.87a45.341,45.341,0,0,1,1.28-12.69c2.68-10.92,10.77-26,33.85-37Z" fill="#00e5ff" stroke="#000" stroke-miterlimit="10" stroke-width="1"/>
                  <path id="Path_86" data-name="Path 86" d="M35.91-6.68c.65.67,1.29,1.36,1.94,2.08C49.24,7.95,54.46,20.8,53.37,33.58A38.7,38.7,0,0,1,46.5,52.41c-3.1,4.48-10.01,8.63-16.42,2.62s-1.36-17.77-.97-23.78c.47-7.11-4.8-14.52-9.31-19.49C12.1,3.27,4.26-1.15-2.84-.97-7.93-.84-17.6-4.15-20.5-10.14s-1.67-10.58,3.37-12.5A41.046,41.046,0,0,1-5.81-25.2c10.2-.84,25.55,1.78,41.72,18.52Z" fill="#00e5ff" stroke="#000" stroke-miterlimit="10" stroke-width="1"/>
                  <path id="Path_87" data-name="Path 87" d="M125.51,192.59c.75.55,1.5,1.13,2.26,1.73,13.27,10.55,20.08,22.98,20.26,36.96a47.8,47.8,0,0,1-5.28,21.93c-2.78,5.54-9.64,11.8-16.99,7s-3.27-18.7-3.47-25.23c-.24-7.73-6.55-14.33-11.8-18.51-8.98-7.14-17.68-9.87-25.12-7.87-5.34,1.44-15.85.35-19.51-5.33s-2.85-10.91,2.25-14.25a49.689,49.689,0,0,1,11.64-5.63c10.63-3.5,27.05-4.61,45.78,9.21Z" fill="#00e5ff" stroke="#000" stroke-miterlimit="10" stroke-width="1"/>
                  <path id="Path_88" data-name="Path 88" d="M385.64,58.38c-.93-.08-1.87-.14-2.84-.2-16.92-.91-30.18,3.15-39.41,12.07a38.678,38.678,0,0,0-10.26,17.22c-1.51,5.24-.37,13.21,8.33,14.39S356.1,91.7,360.51,87.6c5.22-4.85,14.29-5.44,20.99-5.08,11.46.62,19.83,3.91,24.17,9.53,3.11,4.03,11.79,9.44,18.26,7.9s9.26-5.38,7.57-10.5a41.219,41.219,0,0,0-5.16-10.4c-5.79-8.44-17.51-18.7-40.7-20.67Z" fill="#00e5ff" stroke="#000" stroke-miterlimit="10" stroke-width="1"/>
                  <path id="Path_89" data-name="Path 89" d="M160.24,27.92c-.93-.08-1.87-.14-2.84-.2-16.92-.91-30.18,3.15-39.41,12.07a38.678,38.678,0,0,0-10.26,17.22c-1.5,5.19-.37,13.21,8.33,14.39s14.64-10.16,19.05-14.26c5.22-4.85,14.29-5.44,20.99-5.08,11.46.62,19.83,3.91,24.17,9.53,3.11,4.03,11.79,9.44,18.26,7.9s9.26-5.38,7.57-10.5a41.218,41.218,0,0,0-5.16-10.4c-5.79-8.44-17.51-18.7-40.7-20.67Z" fill="#00e5ff" stroke="#000" stroke-miterlimit="10" stroke-width="1"/>
                  <path id="Path_90" data-name="Path 90" d="M253.47,48.13c-.13-.86-.27-1.72-.44-2.6-2.86-15.49-9.75-26.54-20.47-32.86a39.913,39.913,0,0,0-19.03-5.38c-5.38-.18-12.95,2.65-12.17,10.77s13.14,10.93,18.1,13.98c5.88,3.61,8.46,11.68,9.59,17.8,1.93,10.48.58,18.78-3.93,23.98-3.23,3.72-6.58,12.78-3.65,18.28s7.29,7.14,11.9,4.46a42.173,42.173,0,0,0,8.99-7.01c6.94-7.13,14.33-20.03,11.12-41.42Z" fill="#00e5ff" stroke="#000" stroke-miterlimit="10" stroke-width="1"/>
                  <path id="Path_91" data-name="Path 91" d="M307.09,97.53c.55-.67,1.1-1.36,1.64-2.07,9.58-12.5,13.18-25.02,10.69-37.21a39.9,39.9,0,0,0-8.76-17.74c-3.47-4.12-10.64-7.84-16.15-1.82s.69,17.07,1.74,22.8c1.25,6.78-3,14.1-6.79,19.05C282.97,89,275.9,93.55,269.03,93.68c-4.93.09-13.9,3.67-16.02,9.53s-.42,10.2,4.66,11.82a42.55,42.55,0,0,0,11.22,1.98c9.94.37,24.47-2.78,38.2-19.49Z" fill="#00e5ff" stroke="#000" stroke-miterlimit="10" stroke-width="1"/>
                  <path id="Path_92" data-name="Path 92" d="M388.39,154.03c-.93-.09-1.87-.17-2.83-.24-16.91-1.15-30.22,2.71-39.58,11.49a38.594,38.594,0,0,0-10.51,17.07c-1.57,5.17-.57,13.21,8.12,14.51s14.79-9.95,19.25-13.98c5.29-4.77,14.37-5.23,21.06-4.78,11.45.78,19.77,4.2,24.03,9.88,3.06,4.07,11.65,9.61,18.15,8.17s9.33-5.25,7.72-10.39a41.333,41.333,0,0,0-5.01-10.48c-5.66-8.52-17.23-18.95-40.39-21.26Z" fill="#00e5ff" stroke="#000" stroke-miterlimit="10" stroke-width="1"/>
                  <path id="Path_93" data-name="Path 93" d="M106.95,125.4c-.93-.09-1.87-.17-2.83-.24-16.91-1.15-30.22,2.71-39.58,11.49a38.594,38.594,0,0,0-10.51,17.07c-1.57,5.17-.57,13.21,8.12,14.51s14.79-9.95,19.25-13.98c5.29-4.77,14.37-5.23,21.06-4.78,11.45.78,19.77,4.2,24.03,9.88,3.06,4.07,11.65,9.61,18.15,8.17s9.33-5.25,7.72-10.39a41.333,41.333,0,0,0-5.01-10.48c-5.66-8.52-17.23-18.95-40.39-21.26Z" fill="#00e5ff" stroke="#000" stroke-miterlimit="10" stroke-width="1"/>
                  <path id="Path_94" data-name="Path 94" d="M284.99,142.32c-.63.69-1.25,1.4-1.87,2.14-10.98,12.91-15.79,25.92-14.29,38.66a38.632,38.632,0,0,0,7.47,18.6c3.22,4.33,10.28,8.31,16.5,2.1s.79-17.81.21-23.79c-.7-7.09,4.34-14.66,8.68-19.77,7.43-8.74,15.13-13.4,22.23-13.45,5.09-.03,14.65-3.65,17.36-9.73s1.33-10.62-3.76-12.38a41.046,41.046,0,0,0-11.4-2.2c-10.22-.51-25.48,2.59-41.11,19.84Z" fill="#00e5ff" stroke="#000" stroke-miterlimit="10" stroke-width="1"/>
                  <path id="Path_95" data-name="Path 95" d="M281.33,18.88c.8.47,1.63.93,2.48,1.39,14.91,8.05,28.63,10.05,40.79,5.94a38.6,38.6,0,0,0,16.64-11.18c3.57-4.05,5.99-11.79-1.38-16.57s-17.58,2.93-23.32,4.75c-6.79,2.15-15.25-1.19-21.15-4.38-10.09-5.45-16.25-12.01-17.78-18.94-1.09-4.97-6.62-13.57-13.13-14.95s-10.67.91-11.33,6.26a41.255,41.255,0,0,0,.22,11.61c1.62,10.1,7.84,24.39,27.96,36.08Z" fill="#00e5ff" stroke="#000" stroke-miterlimit="10" stroke-width="1"/>
                  <path id="Path_96" data-name="Path 96" d="M335.8,231.17c.57.55,1.14,1.11,1.71,1.7,10.03,10.27,14.85,20.98,14.33,31.84a32.721,32.721,0,0,1-5.23,16.15c-2.49,3.88-8.21,7.62-13.82,2.73s-1.71-15-1.56-20.1c.18-6.03-4.52-12.14-8.49-16.2-6.79-6.95-13.56-10.44-19.57-10.07-4.31.27-12.6-2.23-15.23-7.22s-1.74-8.9,2.46-10.68a34.891,34.891,0,0,1,9.51-2.52c8.61-1.03,21.69.71,35.89,14.37Z" fill="#00e5ff" stroke="#000" stroke-miterlimit="10" stroke-width="1"/>
                  <path id="Path_97" data-name="Path 97" d="M190.32,260.46c-.14.78-.29,1.56-.46,2.36-2.95,14.05-9.16,24.02-18.47,29.63a32.827,32.827,0,0,1-16.33,4.65c-4.57.09-10.9-2.58-9.96-9.96s11.51-9.77,15.83-12.48c5.11-3.21,7.57-10.51,8.74-16.07,1.99-9.51,1.12-17.08-2.53-21.86-2.62-3.43-5.16-11.71-2.49-16.67s6.42-6.4,10.24-3.9a34.9,34.9,0,0,1,7.39,6.49c5.65,6.58,11.49,18.41,8.04,37.82Z" fill="#00e5ff" stroke="#000" stroke-miterlimit="10" stroke-width="1"/>
                  <path id="Path_98" data-name="Path 98" d="M233.33,187.05c-.79.49-1.61.97-2.45,1.45-14.71,8.41-28.38,10.73-40.63,6.91a38.569,38.569,0,0,1-16.9-10.78c-3.67-3.96-6.27-11.64.98-16.6s17.65,2.51,23.42,4.19c6.84,1.99,15.21-1.56,21.03-4.88,9.96-5.69,15.96-12.39,17.32-19.36.97-5,6.3-13.73,12.77-15.26s10.69.65,11.47,5.98a41.017,41.017,0,0,1,.06,11.61c-1.38,10.14-7.25,24.57-27.09,36.74Z" fill="#00e5ff" stroke="#000" stroke-miterlimit="10" stroke-width="1"/>
                  <path id="Path_99" data-name="Path 99" d="M245.82,273.31c-.76-.54-1.53-1.09-2.3-1.67-13.54-10.19-21.08-21.83-22.42-34.59a38.618,38.618,0,0,1,3.21-19.78c2.19-4.93,8.21-10.36,15.64-5.66s4.68,17.2,5.42,23.17c.88,7.07,7.45,13.36,12.8,17.39,9.17,6.9,17.7,9.76,24.64,8.25,4.98-1.08,15.1.35,19.07,5.69s3.63,10.07-.96,12.91a41.4,41.4,0,0,1-10.64,4.65c-9.86,2.74-25.43,3.06-44.46-10.35Z" fill="#00e5ff" stroke="#000" stroke-miterlimit="10" stroke-width="1"/>
                </g>
              </g>
            </g>
          </g>
          <g id="Group_18" data-name="Group 18">
            <path id="Path_100" data-name="Path 100" d="M101.12,85.28a42.2,42.2,0,0,1,15.38,2.71v15.18c-2.97-1.72-7.79-2.71-11.68-2.71-6.14,0-11.15,2.44-11.15,9.04s4.95,8.18,6.86,8.18h.73V106.53h16.37v24.09a44.882,44.882,0,0,1-15.97,3.1c-13.53,0-26.07-7.99-26.07-24.22s12.6-24.22,25.54-24.22Z" fill="#ff0" stroke="#1d1d1b" stroke-miterlimit="10" stroke-width="1"/>
            <path id="Path_101" data-name="Path 101" d="M146.27,85.28c16.76,0,25.28,10.62,25.28,24.22s-8.51,24.22-25.28,24.22-25.21-10.62-25.21-24.22S129.51,85.28,146.27,85.28Zm0,15.84c-4.29,0-7.13,2.84-7.13,8.38s2.84,8.38,7.13,8.38,7.19-2.84,7.19-8.38S150.62,101.12,146.27,101.12Z" fill="#ff0" stroke="#1d1d1b" stroke-miterlimit="10" stroke-width="1"/>
            <path id="Path_102" data-name="Path 102" d="M193.06,86.4v31.02H211.8V132.6H175.5V86.4h17.55Z" fill="#ff0" stroke="#1d1d1b" stroke-miterlimit="10" stroke-width="1"/>
            <path id="Path_103" data-name="Path 103" d="M236.36,86.4c16.63,0,23.89,9.5,23.89,23.1s-7.26,23.1-23.89,23.1H215.31V86.4h21.05Zm-.66,14.52h-2.84v17.16h2.84c3.83,0,6.47-1.91,6.47-8.58S239.53,100.92,235.7,100.92Z" fill="#ff0" stroke="#1d1d1b" stroke-miterlimit="10" stroke-width="1"/>
          </g>
        </g>
      </g>
    </g>
  </g>
</svg>
