<svg xmlns="http://www.w3.org/2000/svg" width="129" height="71" viewBox="0 0 129 71">
  <g id="Group_2" data-name="Group 2" transform="translate(-71 -95)">
    <rect id="Rectangle_1" data-name="Rectangle 1" width="129" height="71" rx="15" transform="translate(71 95)" fill="#ff3f7b"/>
    <path id="Path_2" data-name="Path 2" d="M.8,0V-7H5.308v1.294H2.378V-4.18H3.73a2.607,2.607,0,0,1,1.736.52,1.785,1.785,0,0,1,.613,1.438A2.085,2.085,0,0,1,5.427-.583,2.678,2.678,0,0,1,3.579,0ZM2.378-3.032v1.88H3.3q1.108,0,1.108-.967,0-.913-1.06-.913ZM13.379,0H11.66l-.5-1.558H8.672L8.179,0H6.47L9.019-7h1.87ZM10.8-2.769l-.752-2.354a3.067,3.067,0,0,1-.117-.63H9.893a2.671,2.671,0,0,1-.122.61L9.009-2.769ZM20.313,0H18.73V-2.852h-2.9V0H14.253V-7H15.83v2.793h2.9V-7h1.582Zm7.422,0H25.742L23.7-3.042a2.916,2.916,0,0,1-.186-.386h-.024V0H21.914V-7h1.577v3.311h.024q.059-.137.2-.391L25.645-7h1.88l-2.441,3.34ZM31,.122A3.259,3.259,0,0,1,28.55-.857,3.515,3.515,0,0,1,27.6-3.408a3.766,3.766,0,0,1,.962-2.686,3.33,3.33,0,0,1,2.549-1.025,3.178,3.178,0,0,1,2.424.981,3.618,3.618,0,0,1,.925,2.588A3.706,3.706,0,0,1,33.5-.889,3.293,3.293,0,0,1,31,.122Zm.068-5.884a1.588,1.588,0,0,0-1.318.623,2.6,2.6,0,0,0-.488,1.648,2.548,2.548,0,0,0,.488,1.646,1.565,1.565,0,0,0,1.279.605,1.58,1.58,0,0,0,1.294-.588A2.52,2.52,0,0,0,32.8-3.462a2.731,2.731,0,0,0-.464-1.694A1.512,1.512,0,0,0,31.069-5.762ZM35.625,0V-7h2.549a3.183,3.183,0,0,1,1.8.43,1.382,1.382,0,0,1,.63,1.211,1.433,1.433,0,0,1-.383.991,2.014,2.014,0,0,1-.979.591v.02a1.94,1.94,0,0,1,1.194.552,1.543,1.543,0,0,1,.447,1.118A1.869,1.869,0,0,1,40.2-.564,2.881,2.881,0,0,1,38.315,0ZM37.2-5.84v1.66H37.9a1.156,1.156,0,0,0,.769-.237.807.807,0,0,0,.281-.652q0-.771-1.152-.771Zm0,2.832v1.846h.854a1.315,1.315,0,0,0,.857-.254.848.848,0,0,0,.31-.693.791.791,0,0,0-.305-.659,1.35,1.35,0,0,0-.852-.239ZM47.056-.249a4.617,4.617,0,0,1-2,.371A3.374,3.374,0,0,1,42.52-.825,3.463,3.463,0,0,1,41.6-3.35a3.7,3.7,0,0,1,1.038-2.725,3.629,3.629,0,0,1,2.693-1.045,5.036,5.036,0,0,1,1.729.259v1.519a3.063,3.063,0,0,0-1.6-.42,2.125,2.125,0,0,0-1.592.62,2.3,2.3,0,0,0-.605,1.68,2.257,2.257,0,0,0,.571,1.619,2.018,2.018,0,0,0,1.538.6,3.281,3.281,0,0,0,1.689-.449ZM54.1,0H52.1L50.063-3.042a2.916,2.916,0,0,1-.186-.386h-.024V0H48.276V-7h1.577v3.311h.024q.059-.137.2-.391L52.007-7h1.88l-2.441,3.34Zm6.826,0H59.2l-.5-1.558h-2.49L55.723,0H54.014l2.549-7h1.87ZM58.345-2.769l-.752-2.354a3.067,3.067,0,0,1-.117-.63h-.039a2.671,2.671,0,0,1-.122.61l-.762,2.373ZM66.6,0H65.015V-2.72h-.42q-.586,0-.957.889L62.876,0H61.055l.981-2.09a1.894,1.894,0,0,1,1.089-1.1v-.02A1.735,1.735,0,0,1,61.577-5a1.758,1.758,0,0,1,.684-1.472A3.077,3.077,0,0,1,64.185-7H66.6ZM65.015-3.9V-5.8h-.659q-1.108,0-1.108.923a.9.9,0,0,0,.3.708,1.167,1.167,0,0,0,.808.269ZM6.621,14H4.629L2.588,10.958a2.916,2.916,0,0,1-.186-.386H2.378V14H.8V7H2.378v3.311H2.4q.059-.137.2-.391L4.531,7h1.88L3.97,10.338Zm6.826,0H11.729l-.5-1.558H8.74L8.247,14H6.538L9.087,7h1.87Zm-2.578-2.769-.752-2.354A3.067,3.067,0,0,1,10,8.248H9.961a2.671,2.671,0,0,1-.122.61l-.762,2.373Zm5.029.356V14H14.321V7h2.471q2.646,0,2.646,2.231a2.141,2.141,0,0,1-.759,1.707,3.008,3.008,0,0,1-2.029.652Zm0-3.379v2.183h.62q1.26,0,1.26-1.1,0-1.079-1.26-1.079Zm9.482.073h-2V14H21.8V8.282H19.814V7h5.566ZM31.89,14H30.171l-.5-1.558h-2.49L26.689,14H24.98l2.549-7H29.4Zm-2.578-2.769L28.56,8.878a3.067,3.067,0,0,1-.117-.63H28.4a2.671,2.671,0,0,1-.122.61l-.762,2.373Z" transform="translate(125 127.06)" fill="#fff"/>
  </g>
</svg>
