<svg xmlns="http://www.w3.org/2000/svg" width="74" height="71.855" viewBox="0 0 74 71.855">
  <g id="Group_7" data-name="Group 7" transform="translate(-100.5 -300)">
    <g id="бусти" transform="translate(100.5 300)">
      <path id="Path_7" data-name="Path 7" d="M55.427,0H18.573A18.706,18.706,0,0,0,0,18.837V53.018A18.706,18.706,0,0,0,18.573,71.855H55.427A18.706,18.706,0,0,0,74,53.018V18.837A18.706,18.706,0,0,0,55.427,0Z" fill="#ff3f7b"/>
    </g>
    <g id="b_1_" transform="translate(79.713 261.828)">
      <path id="Path_24" data-name="Path 24" d="M40.468,78.481,48.145,51.6h11.8l-2.379,8.333-.071.143-6.264,22h5.84q-3.674,9.25-5.723,14.5c-10.786-.119-13.8-7.929-11.163-17.167M51.395,96.6,65.619,75.91H59.59l5.252-13.262c9,.952,13.235,8.119,10.739,16.786C72.919,88.743,62.134,96.6,51.63,96.6Z" fill="#ff0"/>
    </g>
  </g>
</svg>
