<svg xmlns="http://www.w3.org/2000/svg" width="200" height="67" viewBox="0 0 200 67">
  <g id="Group_2" data-name="Group 2" transform="translate(-61 -352)">
    <g id="Path_3" data-name="Path 3" transform="translate(61 352)" fill="#ff3f7b">
      <path d="M 166.5 66.5 L 33.5 66.5 C 29.0447998046875 66.5 24.7231502532959 65.62754821777344 20.65505027770996 63.90689849853516 C 16.72550010681152 62.24485015869141 13.19629955291748 59.86534881591797 10.1654748916626 56.83452606201172 C 7.134650230407715 53.8036994934082 4.755149841308594 50.27450180053711 3.093100070953369 46.34495162963867 C 1.372449994087219 42.27685165405273 0.5 37.9552001953125 0.5 33.5 C 0.5 29.0447998046875 1.372449994087219 24.7231502532959 3.093100070953369 20.65505027770996 C 4.755149841308594 16.72550010681152 7.134650230407715 13.19629955291748 10.1654748916626 10.1654748916626 C 13.19629955291748 7.134650230407715 16.72550010681152 4.755149841308594 20.65505027770996 3.093100070953369 C 24.7231502532959 1.372449994087219 29.0447998046875 0.5 33.5 0.5 L 166.5 0.5 C 170.9552001953125 0.5 175.27685546875 1.372449994087219 179.3449554443359 3.093100070953369 C 183.2745056152344 4.755149841308594 186.8036956787109 7.134650230407715 189.8345184326172 10.1654748916626 C 192.8653564453125 13.19629955291748 195.2448425292969 16.72550010681152 196.9069061279297 20.65505027770996 C 198.6275482177734 24.7231502532959 199.5 29.0447998046875 199.5 33.5 C 199.5 37.9552001953125 198.6275482177734 42.27685165405273 196.9069061279297 46.34495162963867 C 195.2448425292969 50.27450180053711 192.8653564453125 53.8036994934082 189.8345184326172 56.83452606201172 C 186.8036956787109 59.86534881591797 183.2745056152344 62.24485015869141 179.3449554443359 63.90689849853516 C 175.27685546875 65.62754821777344 170.9552001953125 66.5 166.5 66.5 Z" stroke="none"/>
      <path d="M 33.5 1 C 29.11207580566406 1 24.85594177246094 1.859161376953125 20.84983825683594 3.553604125976562 C 16.97987365722656 5.190448760986328 13.50407409667969 7.533946990966797 10.51902770996094 10.51902770996094 C 7.533950805664062 13.50407791137695 5.190444946289062 16.9798698425293 3.553604125976562 20.8498420715332 C 1.859161376953125 24.8559455871582 1 29.11207962036133 1 33.5 C 1 37.88792037963867 1.859161376953125 42.14405059814453 3.553604125976562 46.1501579284668 C 5.190444946289062 50.02013397216797 7.533950805664062 53.49592208862305 10.51902770996094 56.48097229003906 C 13.50407409667969 59.4660530090332 16.97987365722656 61.80955123901367 20.84983825683594 63.44639587402344 C 24.85594177246094 65.14083862304688 29.11207580566406 66 33.5 66 L 166.5 66 C 170.8879241943359 66 175.1440277099609 65.14083862304688 179.1501617431641 63.44639587402344 C 183.0201110839844 61.80955123901367 186.4958953857422 59.4660530090332 189.4809722900391 56.48097229003906 C 192.4660339355469 53.49592208862305 194.8095550537109 50.02013397216797 196.4463958740234 46.1501579284668 C 198.1408386230469 42.14405059814453 199 37.88792037963867 199 33.5 C 199 29.11207962036133 198.1408386230469 24.8559455871582 196.4463958740234 20.8498420715332 C 194.8095550537109 16.9798698425293 192.4660339355469 13.50407791137695 189.4809722900391 10.51902770996094 C 186.4958953857422 7.533946990966797 183.0201110839844 5.190448760986328 179.1501617431641 3.553604125976562 C 175.1440277099609 1.859161376953125 170.8879241943359 1 166.5 1 L 33.5 1 M 33.5 0 L 166.5 0 C 185.0015258789062 0 200 14.99844741821289 200 33.5 C 200 52.00155258178711 185.0015258789062 67 166.5 67 L 33.5 67 C 14.99844360351562 67 0 52.00155258178711 0 33.5 C 0 14.99844741821289 14.99844360351562 0 33.5 0 Z" stroke="none" fill="#707070"/>
    </g>
    <path id="Path_4" data-name="Path 4" d="M1.361,0V-11.9H9.023v2.2H4.042v2.6h2.3a4.431,4.431,0,0,1,2.951.884,3.034,3.034,0,0,1,1.042,2.445A3.544,3.544,0,0,1,9.226-.992,4.553,4.553,0,0,1,6.084,0ZM4.042-5.155v3.2H5.611Q7.5-1.959,7.5-3.6q0-1.552-1.8-1.552ZM22.744,0H19.822l-.847-2.648H14.742L13.9,0H11l4.333-11.9h3.179ZM18.361-4.707l-1.278-4a5.214,5.214,0,0,1-.2-1.071h-.066a4.54,4.54,0,0,1-.208,1.038L15.315-4.707ZM34.531,0H31.842V-4.848H26.911V0H24.23V-11.9h2.681v4.748h4.931V-11.9h2.689ZM47.148,0H43.762l-3.47-5.171a4.957,4.957,0,0,1-.315-.656h-.042V0H37.254V-11.9h2.681v5.628h.042q.1-.232.332-.664L43.6-11.9h3.2l-4.15,5.678ZM52.7.208a5.541,5.541,0,0,1-4.167-1.664,5.975,5.975,0,0,1-1.61-4.337,6.4,6.4,0,0,1,1.635-4.565A5.662,5.662,0,0,1,52.893-12.1a5.4,5.4,0,0,1,4.121,1.668,6.151,6.151,0,0,1,1.573,4.4,6.3,6.3,0,0,1-1.631,4.524A5.6,5.6,0,0,1,52.7.208Zm.116-10a2.7,2.7,0,0,0-2.241,1.058,4.413,4.413,0,0,0-.83,2.8,4.332,4.332,0,0,0,.83,2.8,2.66,2.66,0,0,0,2.175,1.029,2.686,2.686,0,0,0,2.2-1,4.284,4.284,0,0,0,.813-2.777,4.642,4.642,0,0,0-.789-2.88A2.571,2.571,0,0,0,52.818-9.795ZM60.563,0V-11.9H64.9a5.411,5.411,0,0,1,3.063.73,2.349,2.349,0,0,1,1.071,2.059,2.436,2.436,0,0,1-.652,1.685,3.423,3.423,0,0,1-1.664,1v.033a3.3,3.3,0,0,1,2.03.938,2.623,2.623,0,0,1,.76,1.9,3.177,3.177,0,0,1-1.17,2.594,4.9,4.9,0,0,1-3.2.959Zm2.681-9.928v2.822h1.179a1.965,1.965,0,0,0,1.307-.4,1.372,1.372,0,0,0,.477-1.108q0-1.312-1.959-1.312Zm0,4.814v3.138H64.7a2.236,2.236,0,0,0,1.457-.432,1.442,1.442,0,0,0,.527-1.179,1.345,1.345,0,0,0-.519-1.121,2.3,2.3,0,0,0-1.448-.407ZM79.995-.423a7.849,7.849,0,0,1-3.4.631A5.737,5.737,0,0,1,72.283-1.4a5.886,5.886,0,0,1-1.569-4.292,6.289,6.289,0,0,1,1.764-4.632A6.17,6.17,0,0,1,77.056-12.1a8.561,8.561,0,0,1,2.938.44v2.582a5.207,5.207,0,0,0-2.723-.714,3.612,3.612,0,0,0-2.706,1.054,3.912,3.912,0,0,0-1.029,2.855,3.837,3.837,0,0,0,.971,2.752,3.431,3.431,0,0,0,2.615,1.025,5.577,5.577,0,0,0,2.872-.764ZM91.964,0H88.578l-3.47-5.171a4.957,4.957,0,0,1-.315-.656h-.042V0H82.07V-11.9h2.681v5.628h.042q.1-.232.332-.664L88.412-11.9h3.2l-4.15,5.678Zm11.6,0h-2.922L99.8-2.648H95.567L94.729,0H91.823l4.333-11.9h3.179ZM99.186-4.707l-1.278-4a5.214,5.214,0,0,1-.2-1.071h-.066a4.54,4.54,0,0,1-.208,1.038L96.14-4.707ZM113.214,0h-2.689V-4.624h-.714q-1,0-1.627,1.511L106.889,0h-3.1l1.668-3.553a3.22,3.22,0,0,1,1.851-1.868v-.033A2.949,2.949,0,0,1,104.681-8.5a2.988,2.988,0,0,1,1.162-2.5,5.231,5.231,0,0,1,3.271-.9h4.1Zm-2.689-6.632V-9.861H109.4q-1.884,0-1.884,1.569a1.537,1.537,0,0,0,.51,1.2,1.985,1.985,0,0,0,1.374.457ZM11.256,22H7.869L4.4,16.829a4.957,4.957,0,0,1-.315-.656H4.042V22H1.361V10.1H4.042v5.628h.042q.1-.232.332-.664L7.7,10.1h3.2l-4.15,5.678Zm11.6,0H19.938l-.847-2.648H14.858L14.02,22H11.115l4.333-11.9h3.179Zm-4.383-4.707-1.278-4a5.214,5.214,0,0,1-.2-1.071h-.066a4.54,4.54,0,0,1-.208,1.038l-1.295,4.034Zm8.55.606V22H24.346V10.1h4.2q4.5,0,4.5,3.793a3.64,3.64,0,0,1-1.291,2.9A5.114,5.114,0,0,1,28.306,17.9Zm0-5.744v3.71h1.054q2.142,0,2.142-1.876,0-1.834-2.142-1.834Zm16.12.125h-3.4V22H37.063V12.28H33.685V10.1h9.463ZM54.212,22H51.291l-.847-2.648H46.21L45.372,22H42.467L46.8,10.1h3.179ZM49.83,17.293l-1.278-4a5.214,5.214,0,0,1-.2-1.071h-.066a4.54,4.54,0,0,1-.208,1.038l-1.295,4.034Z" transform="translate(129 382)" fill="#fff"/>
  </g>
</svg>
