<svg xmlns="http://www.w3.org/2000/svg" width="129" height="71" viewBox="0 0 129 71">
  <g id="Group_1" data-name="Group 1" transform="translate(-70 -189)">
    <rect id="Rectangle_2" data-name="Rectangle 2" width="129" height="71" rx="15" transform="translate(70 189)" fill="#1c4771"/>
    <path id="Path_1" data-name="Path 1" d="M3.73-2.9H2.378V0H.8V-7H2.378v2.783H3.76a3.479,3.479,0,0,1,1.1-2.122,3.185,3.185,0,0,1,2.192-.779,3.01,3.01,0,0,1,2.341.977,3.71,3.71,0,0,1,.886,2.593A3.8,3.8,0,0,1,9.36-.879a3.13,3.13,0,0,1-2.422,1A3.062,3.062,0,0,1,4.763-.7,3.428,3.428,0,0,1,3.73-2.9Zm3.3-2.861a1.44,1.44,0,0,0-1.233.6,2.752,2.752,0,0,0-.437,1.655,2.878,2.878,0,0,0,.417,1.687,1.375,1.375,0,0,0,1.189.583,1.424,1.424,0,0,0,1.208-.576,2.7,2.7,0,0,0,.432-1.646,2.979,2.979,0,0,0-.413-1.7A1.331,1.331,0,0,0,7.031-5.762ZM19.419,0H17.861V-4.189q0-.679.059-1.5h-.039a7.376,7.376,0,0,1-.22.928L16.021,0H14.731l-1.67-4.712a9.169,9.169,0,0,1-.22-.977H12.8q.063,1.035.063,1.816V0H11.44V-7h2.31l1.431,4.15a5.844,5.844,0,0,1,.249,1h.029a10.079,10.079,0,0,1,.278-1.011L17.168-7h2.251ZM23.97.122a3.259,3.259,0,0,1-2.451-.979,3.515,3.515,0,0,1-.947-2.551,3.766,3.766,0,0,1,.962-2.686,3.33,3.33,0,0,1,2.549-1.025,3.178,3.178,0,0,1,2.424.981,3.618,3.618,0,0,1,.925,2.588,3.706,3.706,0,0,1-.959,2.661A3.293,3.293,0,0,1,23.97.122Zm.068-5.884a1.588,1.588,0,0,0-1.318.623,2.6,2.6,0,0,0-.488,1.648,2.548,2.548,0,0,0,.488,1.646A1.565,1.565,0,0,0,24-1.24a1.58,1.58,0,0,0,1.294-.588,2.52,2.52,0,0,0,.479-1.633,2.731,2.731,0,0,0-.464-1.694A1.512,1.512,0,0,0,24.038-5.762ZM34.893,0H33.3L30.415-4.4a6.362,6.362,0,0,1-.352-.581h-.02q.039.371.039,1.133V0H28.594V-7h1.7l2.778,4.263q.19.288.352.571h.02A7.486,7.486,0,0,1,33.4-3.13V-7h1.489Zm5.8,0h-4.2V-7h4.038v1.284H38.071V-4.16h2.29v1.279h-2.29v1.6h2.622Zm6.4-7L44.814-2.49V0H43.237V-2.461L41.016-7h1.8L43.945-4.39q.029.073.161.571h.02a2.544,2.544,0,0,1,.151-.552L45.425-7Zm4.541,0L48.223,1.162H46.846L50.244-7ZM3.73,11.1H2.378V14H.8V7H2.378V9.781H3.76a3.479,3.479,0,0,1,1.1-2.122,3.185,3.185,0,0,1,2.192-.779,3.01,3.01,0,0,1,2.341.977,3.71,3.71,0,0,1,.886,2.593,3.8,3.8,0,0,1-.918,2.671,3.13,3.13,0,0,1-2.422,1,3.062,3.062,0,0,1-2.175-.82A3.428,3.428,0,0,1,3.73,11.1Zm3.3-2.861a1.44,1.44,0,0,0-1.233.6,2.752,2.752,0,0,0-.437,1.655,2.878,2.878,0,0,0,.417,1.687,1.375,1.375,0,0,0,1.189.583,1.424,1.424,0,0,0,1.208-.576,2.7,2.7,0,0,0,.432-1.646,2.979,2.979,0,0,0-.413-1.7A1.331,1.331,0,0,0,7.031,8.238ZM19.419,14H17.861V9.811q0-.679.059-1.5h-.039a7.376,7.376,0,0,1-.22.928L16.021,14H14.731l-1.67-4.712a9.169,9.169,0,0,1-.22-.977H12.8q.063,1.035.063,1.816V14H11.44V7h2.31l1.431,4.15a5.844,5.844,0,0,1,.249,1h.029a10.079,10.079,0,0,1,.278-1.011L17.168,7h2.251Zm7.749,0H25.449l-.5-1.558h-2.49L21.968,14H20.259l2.549-7h1.87ZM24.59,11.231l-.752-2.354a3.067,3.067,0,0,1-.117-.63h-.039a2.671,2.671,0,0,1-.122.61L22.8,11.231ZM34.1,14H32.52V11.148h-2.9V14H28.042V7h1.577V9.791h2.9V7H34.1ZM42,14H40.513V10.152a11.166,11.166,0,0,1,.049-1.133h-.029q-.1.2-.352.581L37.29,14H35.7V7h1.489V10.87a7.486,7.486,0,0,1-.039.962h.02q.024-.059.361-.571L40.313,7H42Z" transform="translate(78 220.999)" fill="#fff"/>
  </g>
</svg>
