<svg xmlns="http://www.w3.org/2000/svg" width="200" height="71" viewBox="0 0 200 71">
  <g id="Group_7" data-name="Group 7" transform="translate(-80 -55)">
    <g id="Rectangle_1" data-name="Rectangle 1" transform="translate(80 55)" fill="#ff3f7b" stroke="#707070" stroke-width="1">
      <rect width="200" height="71" rx="15" stroke="none"/>
      <rect x="0.5" y="0.5" width="199" height="70" rx="14.5" fill="none"/>
    </g>
    <path id="Path_8" data-name="Path 8" d="M1.361-3.575v-8.387h5.1v1.55H3.147v1.831H4.678a2.842,2.842,0,0,1,1.965.623,2.2,2.2,0,0,1,.694,1.723A2.573,2.573,0,0,1,6.6-4.274a2.925,2.925,0,0,1-2.092.7ZM3.147-7.207v2.252H4.192q1.255,0,1.255-1.158,0-1.094-1.2-1.094ZM15.6-3.575H13.656l-.564-1.866H10.273L9.714-3.575H7.779l2.886-8.387h2.117ZM12.683-6.891,11.832-9.71a3.864,3.864,0,0,1-.133-.755h-.044a3.363,3.363,0,0,1-.138.731l-.862,2.843ZM23.452-3.575H21.661V-6.991H18.377v3.416H16.591v-8.387h1.786v3.346h3.284v-3.346h1.791Zm8.4,0H29.6L27.288-7.219a3.581,3.581,0,0,1-.21-.462h-.028v4.106H25.265v-8.387h1.786V-8h.028q.066-.164.221-.468l2.189-3.5h2.128l-2.764,4Zm3.7.146A3.588,3.588,0,0,1,32.778-4.6a4.352,4.352,0,0,1-1.072-3.056,4.669,4.669,0,0,1,1.089-3.217A3.668,3.668,0,0,1,35.68-12.1a3.5,3.5,0,0,1,2.745,1.176,4.486,4.486,0,0,1,1.048,3.1,4.593,4.593,0,0,1-1.086,3.188A3.627,3.627,0,0,1,35.553-3.429Zm.077-7.048a1.762,1.762,0,0,0-1.493.746,3.237,3.237,0,0,0-.553,1.974,3.177,3.177,0,0,0,.553,1.971,1.736,1.736,0,0,0,1.448.725,1.751,1.751,0,0,0,1.465-.7,3.142,3.142,0,0,0,.542-1.956,3.411,3.411,0,0,0-.525-2.03A1.68,1.68,0,0,0,35.63-10.477Zm5.158,6.9v-8.387h2.886a3.45,3.45,0,0,1,2.04.515A1.685,1.685,0,0,1,46.427-10a1.774,1.774,0,0,1-.434,1.187,2.262,2.262,0,0,1-1.108.708v.023a2.148,2.148,0,0,1,1.352.661,1.906,1.906,0,0,1,.506,1.339,2.3,2.3,0,0,1-.779,1.828,3.14,3.14,0,0,1-2.128.676Zm1.786-7v1.989h.785a1.261,1.261,0,0,0,.871-.284.993.993,0,0,0,.318-.781q0-.924-1.3-.924Zm0,3.392v2.211h.967a1.433,1.433,0,0,0,.97-.3,1.042,1.042,0,0,0,.351-.831.97.97,0,0,0-.346-.79,1.469,1.469,0,0,0-.965-.287Zm11.156,3.3a4.979,4.979,0,0,1-2.267.445,3.707,3.707,0,0,1-2.869-1.135,4.289,4.289,0,0,1-1.045-3.024,4.576,4.576,0,0,1,1.175-3.264A3.991,3.991,0,0,1,51.772-12.1a5.416,5.416,0,0,1,1.957.31v1.819a3.322,3.322,0,0,0-1.813-.5,2.337,2.337,0,0,0-1.8.743,2.851,2.851,0,0,0-.685,2.012,2.8,2.8,0,0,0,.647,1.939,2.221,2.221,0,0,0,1.741.722A3.559,3.559,0,0,0,53.729-5.6Zm7.972.3H59.445L57.135-7.219a3.581,3.581,0,0,1-.21-.462H56.9v4.106H55.111v-8.387H56.9V-8h.028q.066-.164.221-.468l2.189-3.5h2.128l-2.764,4Zm7.728,0H67.483l-.564-1.866H64.1l-.558,1.866H61.607l2.886-8.387H66.61ZM66.51-6.891,65.659-9.71a3.864,3.864,0,0,1-.133-.755h-.044a3.363,3.363,0,0,1-.138.731l-.862,2.843Zm9.343,3.316H74.062V-6.833h-.475q-.663,0-1.084,1.065L71.64-3.575H69.578l1.111-2.5a2.208,2.208,0,0,1,1.233-1.316v-.023A2.047,2.047,0,0,1,70.17-9.564a2.155,2.155,0,0,1,.774-1.763,3.347,3.347,0,0,1,2.178-.635h2.731ZM74.062-8.248v-2.275h-.746q-1.255,0-1.255,1.105a1.113,1.113,0,0,0,.34.848,1.277,1.277,0,0,0,.915.322ZM7.951,11.927H5.7L3.385,8.283a3.582,3.582,0,0,1-.21-.462H3.147v4.106H1.361V3.54H3.147V7.505h.028q.066-.164.221-.468l2.189-3.5H7.713l-2.764,4Zm7.728,0H13.733l-.564-1.866H10.35l-.558,1.866H7.857L10.743,3.54H12.86ZM12.76,8.611l-.851-2.819a3.865,3.865,0,0,1-.133-.755h-.044a3.363,3.363,0,0,1-.138.731l-.862,2.843Zm5.694.427v2.889H16.669V3.54h2.8q3,0,3,2.673a2.631,2.631,0,0,1-.86,2.044,3.285,3.285,0,0,1-2.3.781Zm0-4.047V7.6h.7q1.426,0,1.426-1.322,0-1.293-1.426-1.293Zm10.736.088H26.929v6.849H25.138V5.078h-2.25V3.54h6.3Zm7.369,6.849H34.613l-.564-1.866H31.23l-.558,1.866H28.737L31.622,3.54H33.74ZM33.64,8.611l-.851-2.819a3.865,3.865,0,0,1-.133-.755h-.044a3.363,3.363,0,0,1-.138.731l-.862,2.843Z" transform="translate(174.555 90.588)" fill="#fff"/>
  </g>
</svg>
