<svg xmlns="http://www.w3.org/2000/svg" width="200" height="71" viewBox="0 0 200 71">
  <g id="Group_6" data-name="Group 6" transform="translate(-119 -377)">
    <g id="Rectangle_2" data-name="Rectangle 2" transform="translate(119 377)" fill="#1c4771" stroke="#707070" stroke-width="1">
      <rect width="200" height="71" rx="15" stroke="none"/>
      <rect x="0.5" y="0.5" width="199" height="70" rx="14.5" fill="none"/>
    </g>
    <path id="Path_9" data-name="Path 9" d="M5.576-7.37H3.63v3.254H1.361v-7.855H3.63v3.122H5.619A3.722,3.722,0,0,1,7.2-11.229a5.42,5.42,0,0,1,3.154-.874,4.989,4.989,0,0,1,3.369,1.1A3.644,3.644,0,0,1,15-8.1a3.734,3.734,0,0,1-1.321,3A5.2,5.2,0,0,1,10.192-3.98a5.167,5.167,0,0,1-3.13-.92A3.578,3.578,0,0,1,5.576-7.37Zm4.749-3.21a2.317,2.317,0,0,0-1.774.668,2.6,2.6,0,0,0-.629,1.857,2.7,2.7,0,0,0,.6,1.892,2.205,2.205,0,0,0,1.711.655,2.3,2.3,0,0,0,1.739-.646A2.557,2.557,0,0,0,12.595-8,2.79,2.79,0,0,0,12-9.906,2.115,2.115,0,0,0,10.326-10.58ZM28.149-4.116H25.908v-4.7q0-.761.084-1.682h-.056a6.8,6.8,0,0,1-.316,1.041l-2.36,5.34H21.4L19-9.4a8.418,8.418,0,0,1-.316-1.1h-.063q.091,1.161.091,2.038v4.344H16.669v-7.855h3.323l2.058,4.656a5.406,5.406,0,0,1,.358,1.123h.042a9.432,9.432,0,0,1,.4-1.134l2.058-4.645h3.239ZM34.7-3.98a5.445,5.445,0,0,1-3.527-1.1A3.5,3.5,0,0,1,29.807-7.94a3.728,3.728,0,0,1,1.384-3.013,5.552,5.552,0,0,1,3.667-1.15A5.3,5.3,0,0,1,38.346-11a3.582,3.582,0,0,1,1.331,2.9A3.674,3.674,0,0,1,38.3-5.113,5.49,5.49,0,0,1,34.7-3.98Zm.1-6.6a2.572,2.572,0,0,0-1.9.7,2.491,2.491,0,0,0-.7,1.849,2.448,2.448,0,0,0,.7,1.846,2.537,2.537,0,0,0,1.841.679,2.578,2.578,0,0,0,1.862-.66A2.418,2.418,0,0,0,37.289-8a2.6,2.6,0,0,0-.667-1.9A2.444,2.444,0,0,0,34.795-10.58ZM50.412-4.116h-2.29L43.97-9.052a7.052,7.052,0,0,1-.506-.652h-.028a10.411,10.411,0,0,1,.056,1.271v4.316H41.349v-7.855h2.445l4,4.782q.274.323.506.641h.028a6.565,6.565,0,0,1-.056-1.079v-4.344h2.143Zm8.346,0H52.716v-7.855h5.81v1.441H54.985v1.747H58.28v1.435H54.985v1.8h3.773Zm9.21-7.855L64.687-6.91v2.793H62.418V-6.877l-3.2-5.094h2.592l1.623,2.93q.042.082.232.641H63.7a2.386,2.386,0,0,1,.218-.619l1.651-2.952Zm10.5,0L73.56-2.813H71.579l4.89-9.158ZM5.576,7.147H3.63V10.4H1.361V2.546H3.63V5.668H5.619A3.722,3.722,0,0,1,7.2,3.288a5.42,5.42,0,0,1,3.154-.874,4.989,4.989,0,0,1,3.369,1.1A3.644,3.644,0,0,1,15,6.419a3.734,3.734,0,0,1-1.321,3,5.2,5.2,0,0,1-3.485,1.123,5.167,5.167,0,0,1-3.13-.92A3.578,3.578,0,0,1,5.576,7.147Zm4.749-3.21a2.317,2.317,0,0,0-1.774.668,2.6,2.6,0,0,0-.629,1.857,2.7,2.7,0,0,0,.6,1.892,2.205,2.205,0,0,0,1.711.655,2.3,2.3,0,0,0,1.739-.646,2.557,2.557,0,0,0,.622-1.846A2.79,2.79,0,0,0,12,4.611,2.115,2.115,0,0,0,10.326,3.937ZM28.149,10.4H25.908V5.7q0-.761.084-1.682h-.056A6.8,6.8,0,0,1,25.62,5.06l-2.36,5.34H21.4L19,5.115a8.418,8.418,0,0,1-.316-1.1h-.063q.091,1.161.091,2.038V10.4H16.669V2.546h3.323L22.051,7.2a5.406,5.406,0,0,1,.358,1.123h.042a9.432,9.432,0,0,1,.4-1.134L24.91,2.546h3.239Zm11.149,0H36.825l-.717-1.747H32.525l-.71,1.747H29.357l3.667-7.855h2.691ZM35.588,7.295l-1.082-2.64a2.776,2.776,0,0,1-.169-.707h-.056a2.427,2.427,0,0,1-.176.685l-1.1,2.662ZM49.274,10.4H47V7.2H42.824v3.2H40.555V2.546h2.269V5.679H47V2.546h2.276Zm11.367,0H58.5V6.084a9.788,9.788,0,0,1,.07-1.271h-.042a7.813,7.813,0,0,1-.506.652L53.861,10.4H51.578V2.546h2.143V6.89a6.565,6.565,0,0,1-.056,1.079h.028q.035-.066.52-.641l4-4.782h2.431Z" transform="translate(140.529 413.283)" fill="#fff"/>
  </g>
</svg>
