<svg xmlns="http://www.w3.org/2000/svg" width="200" height="67" viewBox="0 0 200 67">
  <g id="Path_1" data-name="Path 1" fill="#1c4771">
    <path d="M 166.5 66.5 L 33.5 66.5 C 29.0447998046875 66.5 24.7231502532959 65.62754821777344 20.65505027770996 63.90689849853516 C 16.72550010681152 62.24485015869141 13.19629955291748 59.86534881591797 10.1654748916626 56.83452606201172 C 7.134650230407715 53.8036994934082 4.755149841308594 50.27450180053711 3.093100070953369 46.34495162963867 C 1.372449994087219 42.27685165405273 0.5 37.9552001953125 0.5 33.5 C 0.5 29.0447998046875 1.372449994087219 24.7231502532959 3.093100070953369 20.65505027770996 C 4.755149841308594 16.72550010681152 7.134650230407715 13.19629955291748 10.1654748916626 10.1654748916626 C 13.19629955291748 7.134650230407715 16.72550010681152 4.755149841308594 20.65505027770996 3.093100070953369 C 24.7231502532959 1.372449994087219 29.0447998046875 0.5 33.5 0.5 L 166.5 0.5 C 170.9552001953125 0.5 175.27685546875 1.372449994087219 179.3449554443359 3.093100070953369 C 183.2745056152344 4.755149841308594 186.8036956787109 7.134650230407715 189.8345184326172 10.1654748916626 C 192.8653564453125 13.19629955291748 195.2448425292969 16.72550010681152 196.9069061279297 20.65505027770996 C 198.6275482177734 24.7231502532959 199.5 29.0447998046875 199.5 33.5 C 199.5 37.9552001953125 198.6275482177734 42.27685165405273 196.9069061279297 46.34495162963867 C 195.2448425292969 50.27450180053711 192.8653564453125 53.8036994934082 189.8345184326172 56.83452606201172 C 186.8036956787109 59.86534881591797 183.2745056152344 62.24485015869141 179.3449554443359 63.90689849853516 C 175.27685546875 65.62754821777344 170.9552001953125 66.5 166.5 66.5 Z" stroke="none"/>
    <path d="M 33.5 1 C 29.11207580566406 1 24.85594177246094 1.859161376953125 20.84983825683594 3.553604125976562 C 16.97987365722656 5.190448760986328 13.50407409667969 7.533946990966797 10.51902770996094 10.51902770996094 C 7.533950805664062 13.50407791137695 5.190444946289062 16.9798698425293 3.553604125976562 20.8498420715332 C 1.859161376953125 24.8559455871582 1 29.11207962036133 1 33.5 C 1 37.88792037963867 1.859161376953125 42.14405059814453 3.553604125976562 46.1501579284668 C 5.190444946289062 50.02013397216797 7.533950805664062 53.49592208862305 10.51902770996094 56.48097229003906 C 13.50407409667969 59.4660530090332 16.97987365722656 61.80955123901367 20.84983825683594 63.44639587402344 C 24.85594177246094 65.14083862304688 29.11207580566406 66 33.5 66 L 166.5 66 C 170.8879241943359 66 175.1440277099609 65.14083862304688 179.1501617431641 63.44639587402344 C 183.0201110839844 61.80955123901367 186.4958953857422 59.4660530090332 189.4809722900391 56.48097229003906 C 192.4660339355469 53.49592208862305 194.8095550537109 50.02013397216797 196.4463958740234 46.1501579284668 C 198.1408386230469 42.14405059814453 199 37.88792037963867 199 33.5 C 199 29.11207962036133 198.1408386230469 24.8559455871582 196.4463958740234 20.8498420715332 C 194.8095550537109 16.9798698425293 192.4660339355469 13.50407791137695 189.4809722900391 10.51902770996094 C 186.4958953857422 7.533946990966797 183.0201110839844 5.190448760986328 179.1501617431641 3.553604125976562 C 175.1440277099609 1.859161376953125 170.8879241943359 1 166.5 1 L 33.5 1 M 33.5 0 L 166.5 0 C 185.0015258789062 0 200 14.99844741821289 200 33.5 C 200 52.00155258178711 185.0015258789062 67 166.5 67 L 33.5 67 C 14.99844360351562 67 0 52.00155258178711 0 33.5 C 0 14.99844741821289 14.99844360351562 0 33.5 0 Z" stroke="none" fill="#707070"/>
  </g>
</svg>
