<svg xmlns="http://www.w3.org/2000/svg" width="91.109" height="34.31" viewBox="0 0 91.109 34.31">
  <path id="Path_2" data-name="Path 2" d="M6.342-4.931h-2.3V0H1.361V-11.9H4.042v4.731H6.392a5.914,5.914,0,0,1,1.868-3.607A5.414,5.414,0,0,1,11.986-12.1a5.117,5.117,0,0,1,3.98,1.66,6.307,6.307,0,0,1,1.507,4.408,6.456,6.456,0,0,1-1.561,4.541A5.321,5.321,0,0,1,11.8.208,5.2,5.2,0,0,1,8.1-1.187,5.827,5.827,0,0,1,6.342-4.931Zm5.611-4.864a2.447,2.447,0,0,0-2.1,1.013,4.678,4.678,0,0,0-.743,2.814A4.892,4.892,0,0,0,9.824-3.1a2.337,2.337,0,0,0,2.021.992A2.421,2.421,0,0,0,13.9-3.088a4.594,4.594,0,0,0,.735-2.8,5.064,5.064,0,0,0-.7-2.889A2.263,2.263,0,0,0,11.953-9.795ZM33.012,0H30.364V-7.122q0-1.154.1-2.548H30.4a12.539,12.539,0,0,1-.374,1.577L27.235,0H25.043L22.2-8.01a15.587,15.587,0,0,1-.374-1.66h-.075q.108,1.76.108,3.088V0H19.449V-11.9h3.926l2.432,7.056a9.934,9.934,0,0,1,.423,1.7h.05a17.135,17.135,0,0,1,.473-1.718L29.186-11.9h3.827Zm7.736.208a5.541,5.541,0,0,1-4.167-1.664,5.975,5.975,0,0,1-1.61-4.337,6.4,6.4,0,0,1,1.635-4.565A5.662,5.662,0,0,1,40.939-12.1a5.4,5.4,0,0,1,4.121,1.668,6.151,6.151,0,0,1,1.573,4.4A6.3,6.3,0,0,1,45-1.511,5.6,5.6,0,0,1,40.749.208Zm.116-10a2.7,2.7,0,0,0-2.241,1.058,4.413,4.413,0,0,0-.83,2.8,4.332,4.332,0,0,0,.83,2.8A2.66,2.66,0,0,0,40.8-2.108a2.686,2.686,0,0,0,2.2-1,4.284,4.284,0,0,0,.813-2.777,4.642,4.642,0,0,0-.789-2.88A2.571,2.571,0,0,0,40.865-9.795ZM59.317,0H56.611L51.706-7.479a10.815,10.815,0,0,1-.6-.988h-.033q.066.631.066,1.926V0H48.609V-11.9H51.5l4.723,7.247q.324.49.6.971h.033a12.727,12.727,0,0,1-.066-1.635V-11.9h2.532Zm9.861,0H62.04V-11.9H68.9V-9.72H64.721v2.648h3.893V-4.9H64.721v2.723h4.458ZM80.061-11.9l-3.876,7.67V0H73.5V-4.184L69.727-11.9H72.79l1.917,4.441q.05.125.274.971h.033a4.324,4.324,0,0,1,.257-.938L77.222-11.9Zm12.41,0-5.8,13.879H84.328L90.1-11.9ZM6.342,17.069h-2.3V22H1.361V10.1H4.042v4.731H6.392a5.914,5.914,0,0,1,1.868-3.607A5.414,5.414,0,0,1,11.986,9.9a5.117,5.117,0,0,1,3.98,1.66,6.307,6.307,0,0,1,1.507,4.408,6.456,6.456,0,0,1-1.561,4.541,5.321,5.321,0,0,1-4.117,1.7,5.2,5.2,0,0,1-3.7-1.395A5.827,5.827,0,0,1,6.342,17.069Zm5.611-4.864a2.447,2.447,0,0,0-2.1,1.013,4.678,4.678,0,0,0-.743,2.814,4.892,4.892,0,0,0,.71,2.868,2.337,2.337,0,0,0,2.021.992,2.421,2.421,0,0,0,2.054-.979,4.594,4.594,0,0,0,.735-2.8,5.064,5.064,0,0,0-.7-2.889A2.263,2.263,0,0,0,11.953,12.205ZM33.012,22H30.364V14.878q0-1.154.1-2.548H30.4a12.539,12.539,0,0,1-.374,1.577L27.235,22H25.043L22.2,13.99a15.587,15.587,0,0,1-.374-1.66h-.075q.108,1.76.108,3.088V22H19.449V10.1h3.926l2.432,7.056a9.934,9.934,0,0,1,.423,1.7h.05a17.135,17.135,0,0,1,.473-1.718L29.186,10.1h3.827Zm13.173,0H43.264l-.847-2.648H38.184L37.345,22H34.44l4.333-11.9h3.179ZM41.8,17.293l-1.278-4a5.214,5.214,0,0,1-.2-1.071h-.066a4.54,4.54,0,0,1-.208,1.038l-1.295,4.034ZM57.973,22H55.283V17.152H50.353V22H47.671V10.1h2.681v4.748h4.931V10.1h2.689ZM71.4,22H68.872V15.459a18.982,18.982,0,0,1,.083-1.926H68.9q-.174.34-.6.988L63.393,22H60.7V10.1h2.532v6.583a12.727,12.727,0,0,1-.066,1.635h.033q.042-.1.614-.971L68.531,10.1H71.4Z" transform="translate(-1.361 12.103)" fill="#fff"/>
</svg>
