<svg xmlns="http://www.w3.org/2000/svg" width="58" height="58" viewBox="0 0 58 58">
  <g id="Path_6" data-name="Path 6" fill="#ff0">
    <path d="M 29 57.5 C 25.15229988098145 57.5 21.41996955871582 56.74652862548828 17.90666961669922 55.26052856445312 C 14.51296997070312 53.82511901855469 11.46500968933105 51.77009963989258 8.84745979309082 49.15253829956055 C 6.229899883270264 46.53498840332031 4.174880027770996 43.48703002929688 2.7394700050354 40.09333038330078 C 1.253469944000244 36.58002853393555 0.5 32.84769821166992 0.5 29 C 0.5 25.15229988098145 1.253469944000244 21.41996955871582 2.7394700050354 17.90666961669922 C 4.174880027770996 14.51296997070312 6.229899883270264 11.46500968933105 8.84745979309082 8.84745979309082 C 11.46500968933105 6.229899883270264 14.51296997070312 4.174880027770996 17.90666961669922 2.7394700050354 C 21.41996955871582 1.253469944000244 25.15229988098145 0.5 29 0.5 C 32.84769821166992 0.5 36.58002853393555 1.253469944000244 40.09333038330078 2.7394700050354 C 43.48703002929688 4.174880027770996 46.53498840332031 6.229899883270264 49.15253829956055 8.84745979309082 C 51.77009963989258 11.46500968933105 53.82511901855469 14.51296997070312 55.26052856445312 17.90666961669922 C 56.74652862548828 21.41996955871582 57.5 25.15229988098145 57.5 29 C 57.5 32.84769821166992 56.74652862548828 36.58002853393555 55.26052856445312 40.09333038330078 C 53.82511901855469 43.48703002929688 51.77009963989258 46.53498840332031 49.15253829956055 49.15253829956055 C 46.53498840332031 51.77009963989258 43.48703002929688 53.82511901855469 40.09333038330078 55.26052856445312 C 36.58002853393555 56.74652862548828 32.84769821166992 57.5 29 57.5 Z" stroke="none"/>
    <path d="M 29 1 C 25.21958160400391 1 21.55278015136719 1.740180969238281 18.1014404296875 3.199970245361328 C 14.76734161376953 4.61016845703125 11.77280044555664 6.629219055175781 9.201011657714844 9.201011657714844 C 6.629219055175781 11.77280044555664 4.61016845703125 14.76734161376953 3.199970245361328 18.1014404296875 C 1.740180969238281 21.55278015136719 1 25.21958160400391 1 29 C 1 32.78041839599609 1.740180969238281 36.44721984863281 3.199970245361328 39.8985595703125 C 4.61016845703125 43.23265838623047 6.629219055175781 46.22719955444336 9.201011657714844 48.79898834228516 C 11.77280044555664 51.37078094482422 14.76734161376953 53.38983154296875 18.1014404296875 54.80002975463867 C 21.55278015136719 56.25981903076172 25.21958160400391 57 29 57 C 32.78041839599609 57 36.44721984863281 56.25981903076172 39.8985595703125 54.80002975463867 C 43.23265838623047 53.38983154296875 46.22719955444336 51.37078094482422 48.79898834228516 48.79898834228516 C 51.37078094482422 46.22719955444336 53.38983154296875 43.23265838623047 54.80002975463867 39.8985595703125 C 56.25981903076172 36.44721984863281 57 32.78041839599609 57 29 C 57 25.21958160400391 56.25981903076172 21.55278015136719 54.80002975463867 18.1014404296875 C 53.38983154296875 14.76734161376953 51.37078094482422 11.77280044555664 48.79898834228516 9.201011657714844 C 46.22719955444336 6.629219055175781 43.23265838623047 4.61016845703125 39.8985595703125 3.199970245361328 C 36.44721984863281 1.740180969238281 32.78041839599609 1 29 1 M 29 0 C 45.01625823974609 0 58 12.98374176025391 58 29 C 58 45.01625823974609 45.01625823974609 58 29 58 C 12.98374176025391 58 0 45.01625823974609 0 29 C 0 12.98374176025391 12.98374176025391 0 29 0 Z" stroke="none" fill="#707070"/>
  </g>
</svg>
