<svg xmlns="http://www.w3.org/2000/svg" width="74" height="71.855" viewBox="0 0 74 71.855">
  <g id="youtube" transform="translate(-9 -394)">
    <g id="бусти" transform="translate(44 448)">
      <path id="Path_7" data-name="Path 7" d="M55.427,0H18.573A18.706,18.706,0,0,0,0,18.837V53.018A18.706,18.706,0,0,0,18.573,71.855H55.427A18.706,18.706,0,0,0,74,53.018V18.837A18.706,18.706,0,0,0,55.427,0Z" transform="translate(-35 -54)" fill="#ff0"/>
    </g>
    <g id="icons8-youtube-play" transform="translate(80.5 671.928)">
      <path id="Path_22" data-name="Path 22" d="M57.766,42.2A6.768,6.768,0,0,1,52,47.533,146.76,146.76,0,0,1,31.431,49a150.253,150.253,0,0,1-20.574-1.467A6.768,6.768,0,0,1,5.1,42.2,75.919,75.919,0,0,1,4,29,75.919,75.919,0,0,1,5.1,15.8a6.768,6.768,0,0,1,5.761-5.333A146.76,146.76,0,0,1,31.431,9,148.492,148.492,0,0,1,52,10.467,6.768,6.768,0,0,1,57.766,15.8,73.6,73.6,0,0,1,59,29,89.09,89.09,0,0,1,57.766,42.2Z" transform="translate(-66 -271)" fill="#1c4771"/>
      <path id="Path_23" data-name="Path 23" d="M20,33V17l14,8Z" transform="translate(-59.5 -267)" fill="#ff0"/>
    </g>
  </g>
</svg>
