<svg id="вк" xmlns="http://www.w3.org/2000/svg" width="74" height="71.855" viewBox="0 0 74 71.855">
  <path id="Path_8" data-name="Path 8" d="M55.427,0H18.573A18.706,18.706,0,0,0,0,18.837V53.018A18.706,18.706,0,0,0,18.573,71.855H55.427A18.706,18.706,0,0,0,74,53.018V18.837A18.706,18.706,0,0,0,55.427,0Z" fill="#1c4771"/>
  <path id="Path_9" data-name="Path 9" d="M10.609,24.179h9.532a.947.947,0,0,1,.508.15.936.936,0,0,1,.346.4,55.181,55.181,0,0,0,8.073,12.759.642.642,0,0,0,.256.235.648.648,0,0,0,.67-.051.64.64,0,0,0,.217-.271c1-2.423,2.855-8.316-.731-12.5a.729.729,0,0,1,.265-1.146,13.048,13.048,0,0,1,10.643-.185,2.027,2.027,0,0,1,.874.739,2,2,0,0,1,.33,1.09L42.4,37.532a.862.862,0,0,0,.311.67.878.878,0,0,0,.719.189c3.984-.841,6.319-6.759,8.654-12.941a1.939,1.939,0,0,1,.713-.921,1.964,1.964,0,0,1,1.116-.351H62.69a1.169,1.169,0,0,1,.894.4,1.148,1.148,0,0,1,.27.935c-.824,4.389-5.272,10.074-7.6,12.81a2.52,2.52,0,0,0,0,3.282l7.85,9.265a1.019,1.019,0,0,1-.237,1.52,1.039,1.039,0,0,1-.554.16H53.387a2.929,2.929,0,0,1-2.145-.931l-6.948-5.735a.954.954,0,0,0-1.381-.119c-.861,1.035-.794,2.316-1.2,5.222a1.856,1.856,0,0,1-.645,1.128,1.884,1.884,0,0,1-1.232.435H33.026a6.53,6.53,0,0,1-2.792-.612C26.322,50.107,15.688,43.614,9.7,25.429a.945.945,0,0,1,.133-.855.962.962,0,0,1,.776-.4Z" fill="#fcf"/>
</svg>
