<svg id="инста" xmlns="http://www.w3.org/2000/svg" width="74" height="70.829" viewBox="0 0 74 70.829">
  <path id="Path_10" data-name="Path 10" d="M55.206,0H18.794A18.786,18.786,0,0,0,0,18.778V52.05A18.786,18.786,0,0,0,18.794,70.829H55.206A18.786,18.786,0,0,0,74,52.05V18.778A18.786,18.786,0,0,0,55.206,0Z" fill="#2fb56a"/>
  <path id="Path_11" data-name="Path 11" d="M37.006,17.551c5.643,0,6.313.021,8.54.124a11.647,11.647,0,0,1,3.926.726,7,7,0,0,1,4.012,4.012,11.571,11.571,0,0,1,.729,3.926c.1,2.227.121,2.9.121,8.54s-.021,6.313-.121,8.555a11.7,11.7,0,0,1-.729,3.927,7,7,0,0,1-4.012,4.012,11.571,11.571,0,0,1-3.926.729c-2.227.1-2.9.121-8.54.121s-6.313-.021-8.555-.121a11.706,11.706,0,0,1-3.927-.729,7,7,0,0,1-4.012-4.012,11.591,11.591,0,0,1-.726-3.927c-.1-2.227-.124-2.9-.124-8.555s.021-6.313.124-8.54a11.727,11.727,0,0,1,.726-3.926A7,7,0,0,1,24.524,18.4a11.516,11.516,0,0,1,3.927-.726C30.678,17.572,31.348,17.551,37.006,17.551Zm0-3.809c-5.741,0-6.461.024-8.714.127a15.519,15.519,0,0,0-5.13.982,10.782,10.782,0,0,0-6.195,6.2,15.516,15.516,0,0,0-.982,5.13c-.1,2.254-.127,2.974-.127,8.714s.024,6.461.127,8.714a15.552,15.552,0,0,0,.982,5.133,10.788,10.788,0,0,0,6.195,6.18,15.519,15.519,0,0,0,5.13.982c2.254.1,2.974.127,8.714.127S43.466,56,45.72,55.9a15.554,15.554,0,0,0,5.133-.982,10.794,10.794,0,0,0,6.18-6.18,15.55,15.55,0,0,0,.982-5.133c.1-2.254.127-2.974.127-8.714s-.024-6.46-.127-8.714a15.516,15.516,0,0,0-.982-5.13,10.788,10.788,0,0,0-6.18-6.2,15.554,15.554,0,0,0-5.133-.982C43.466,13.766,42.747,13.743,37.006,13.743Z" fill="#fcf"/>
  <path id="Path_12" data-name="Path 12" d="M37,24.314a10.217,10.217,0,0,0-5.874,1.869,11,11,0,0,0-3.895,4.981,11.617,11.617,0,0,0-.6,6.414,11.282,11.282,0,0,0,2.893,5.684A10.425,10.425,0,0,0,34.938,46.3a10.105,10.105,0,0,0,6.109-.632,10.7,10.7,0,0,0,4.744-4.09,11.528,11.528,0,0,0-1.315-14.015A10.32,10.32,0,0,0,37,24.314Zm0,18.3A6.63,6.63,0,0,1,33.192,41.4a7.139,7.139,0,0,1-2.527-3.232,7.538,7.538,0,0,1-.39-4.162,7.32,7.32,0,0,1,1.877-3.688,6.765,6.765,0,0,1,3.512-1.971,6.557,6.557,0,0,1,3.964.41,6.943,6.943,0,0,1,3.079,2.653,7.479,7.479,0,0,1-.853,9.095A6.7,6.7,0,0,1,37,42.614Z" fill="#fcf"/>
  <path id="Path_13" data-name="Path 13" d="M50.743,23.786a2.643,2.643,0,1,1-.2-1.011A2.643,2.643,0,0,1,50.743,23.786Z" fill="#fcf"/>
</svg>
