<svg id="Монтажная_область_2" data-name="Монтажная область 2" xmlns="http://www.w3.org/2000/svg" xmlns:xlink="http://www.w3.org/1999/xlink" width="336" height="219" viewBox="0 0 336 219">
  <defs>
    <clipPath id="clip-path">
      <rect id="Rectangle_12" data-name="Rectangle 12" width="336" height="219" rx="16" fill="none"/>
    </clipPath>
    <clipPath id="clip-path-2">
      <rect id="Rectangle_11" data-name="Rectangle 11" width="716.76" height="421.04" transform="translate(-180.27 -102.14)" fill="none"/>
    </clipPath>
  </defs>
  <rect id="Rectangle_10" data-name="Rectangle 10" width="336" height="219" rx="16" fill="#ff3f7b"/>
  <g id="Group_22" data-name="Group 22" clip-path="url(#clip-path)">
    <g id="Group_21" data-name="Group 21" clip-path="url(#clip-path-2)">
      <g id="Group_20" data-name="Group 20">
        <path id="Path_104" data-name="Path 104" d="M.48,209.85c-6.14,8.2-8.67-6.27-22.1,6.4s-4.07,22.55-15.14,23.33-6.72-19.18-16.35-22.4-29.19,8.4-30.81-25.59,37.44-6.67,49.5-13.8S-7.07,153.9-.08,167.53s-4.46,14.7-5.77,22.87S6.63,201.66.49,209.87Z" fill="#1c4771" stroke="#000" stroke-miterlimit="10" stroke-width="1"/>
        <path id="Path_105" data-name="Path 105" d="M96.34,196.51c-5.05,8.92-9.39-5.12-21.11,9.15s-1.18,22.88-12.06,25.06-9.1-18.17-19.06-20.15S16.22,222.61,10.3,189.09s36.29-11.37,47.35-19.97,24.1-27.16,32.76-14.53-2.56,15.15-2.83,23.42,13.8,9.59,8.76,18.51Z" fill="#1c4771" stroke="#000" stroke-miterlimit="10" stroke-width="1"/>
        <path id="Path_106" data-name="Path 106" d="M71.35,99.99c2.45,9.95-10.34,2.73-9.06,21.14s14.85,17.45,8.44,26.5-19.09-6.96-27.69-1.56-12.01,27.9-39.33,7.6,18.58-33.18,20.71-47.03-1.13-36.3,13.84-33.06S46.8,86.35,52.28,92.54s16.62-2.51,19.07,7.44Z" fill="#1c4771" stroke="#000" stroke-miterlimit="10" stroke-width="1"/>
        <path id="Path_107" data-name="Path 107" d="M77.4,119.5c-1.37-10.15,10.58-1.6,11.28-20.05S75.79,80.51,83.13,72.2s18.23,8.97,27.36,4.53,14.94-26.45,39.92-3.33-22.03,30.99-25.64,44.53-2.77,36.21-17.31,31.38-7.12-13.62-11.91-20.36-16.79.71-18.16-9.45Z" fill="#1c4771" stroke="#000" stroke-miterlimit="10" stroke-width="1"/>
        <path id="Path_108" data-name="Path 108" d="M-28.87,82.59c-10.15,1.39,1.28,10.62-16.31,16.22s-21.69-7.38-27.74,1.92,13.51,15.18,11.66,25.17-21.51,21.45,7.43,39.36,24-29.5,36.08-36.59,34.16-12.32,25.63-25.05-15.02-3.23-22.8-6.05-3.8-16.37-13.95-14.99Z" fill="#1c4771" stroke="#000" stroke-miterlimit="10" stroke-width="1"/>
        <path id="Path_109" data-name="Path 109" d="M162.09,203.28c-.09,10.25-10.7.08-14.02,18.24s10.07,20.58,1.61,27.76-16.77-11.47-26.44-8.37-18.55,24.06-39.99-2.38,26.22-27.54,31.72-40.43,7.9-35.44,21.6-28.6,5.11,14.49,8.89,21.85,16.72,1.69,16.63,11.94Z" fill="#1c4771" stroke="#000" stroke-miterlimit="10" stroke-width="1"/>
        <path id="Path_110" data-name="Path 110" d="M233.79,206.12c5.05,8.92,9.39-5.12,21.11,9.15s1.18,22.88,12.06,25.06,9.1-18.17,19.06-20.15,27.89,12.04,33.81-21.48-36.29-11.37-47.35-19.97-24.1-27.16-32.76-14.53,2.56,15.15,2.83,23.42-13.8,9.59-8.76,18.51Z" fill="#1c4771" stroke="#000" stroke-miterlimit="10" stroke-width="1"/>
        <path id="Path_111" data-name="Path 111" d="M267.66,109.6c-2.45,9.95,10.34,2.73,9.06,21.14s-14.85,17.45-8.44,26.5,19.09-6.96,27.69-1.56,12.01,27.9,39.33,7.6-18.58-33.18-20.71-47.03,1.13-36.3-13.84-33.06-8.54,12.77-14.02,18.96-16.62-2.51-19.07,7.44Z" fill="#1c4771" stroke="#000" stroke-miterlimit="10" stroke-width="1"/>
        <path id="Path_112" data-name="Path 112" d="M369.36,81.85c10.15,1.39-1.28,10.62,16.31,16.22s21.69-7.38,27.74,1.92-13.51,15.18-11.66,25.17,21.51,21.45-7.43,39.36-24-29.5-36.08-36.59-34.16-12.32-25.63-25.05,15.02-3.23,22.8-6.05,3.8-16.37,13.95-14.99Z" fill="#1c4771" stroke="#000" stroke-miterlimit="10" stroke-width="1"/>
        <path id="Path_113" data-name="Path 113" d="M392.3-18.24c-2.29-9.99-10.46,2.22-17.61-14.8s5.4-22.26-4.4-27.46-13.91,14.81-24.02,13.87-23.29-19.5-38.54,10.93S339.26-14.44,347.4-3.04s15.34,32.92,27.24,23.28,1.87-15.25,3.98-23.25,15.97-5.25,13.68-15.24Z" fill="#1c4771" stroke="#000" stroke-miterlimit="10" stroke-width="1"/>
        <path id="Path_114" data-name="Path 114" d="M135.46,155.11c4.44,9.24,9.72-4.48,20.44,10.55s-.36,22.91,10.34,25.82,10.3-17.51,20.37-18.82,27.02,13.89,35.18-19.15-35.44-13.78-45.9-23.11-22.22-28.73-31.71-16.71,1.54,15.29,1.24,23.55-14.42,8.64-9.98,17.88Z" fill="#1c4771" stroke="#000" stroke-miterlimit="10" stroke-width="1"/>
        <path id="Path_115" data-name="Path 115" d="M307.35,54.94c4.44,9.24,9.72-4.48,20.44,10.55s-.36,22.91,10.34,25.82,10.3-17.51,20.37-18.82,27.02,13.89,35.18-19.15-35.44-13.78-45.9-23.11S325.56,1.5,316.07,13.52s1.54,15.29,1.24,23.55-14.42,8.64-9.98,17.88Z" fill="#1c4771" stroke="#000" stroke-miterlimit="10" stroke-width="1"/>
        <path id="Path_116" data-name="Path 116" d="M298.55,50.84c3.3-9.7-10.07-3.61-7.2-21.85s16.31-16.09,10.7-25.67-19.62,5.28-27.72-.84-9.55-28.84-38.52-10.97,15.64,34.66,16.56,48.64-4.27,36.06,10.92,34.13S272.9,62.29,278.9,56.6s16.34,3.93,19.65-5.76Z" fill="#1c4771" stroke="#000" stroke-miterlimit="10" stroke-width="1"/>
        <path id="Path_117" data-name="Path 117" d="M216.26.79c-8.98-4.94-5.3,9.29-22.77,3.3S180.47-14.76,170.07-10.9s1.8,20.24-5.64,27.16-30.06,4.4-17.49,36.04,36.85-9.39,50.78-7.87,34.77,10.46,35.51-4.84-10.14-11.55-14.7-18.44S225.24,5.74,216.26.8Z" fill="#1c4771" stroke="#000" stroke-miterlimit="10" stroke-width="1"/>
        <path id="Path_118" data-name="Path 118" d="M155.6-12.13c-1.21-10.17-10.64,1.1-15.94-16.59s7.74-21.56-1.45-27.77S122.8-43.24,112.85-45.26,91.77-67.13,73.37-38.5s29.08,24.49,35.96,36.7,11.74,34.36,24.61,26.05,3.48-14.97,6.43-22.69,16.44-3.52,15.22-13.69Z" fill="#1c4771" stroke="#000" stroke-miterlimit="10" stroke-width="1"/>
        <path id="Path_119" data-name="Path 119" d="M28.05,28.17c2.62,9.91,10.39-2.57,18.09,14.21s-4.67,22.43,5.3,27.3S64.85,54.42,74.99,55.03s23.92,18.72,38.15-12.19S80.92,22.63,72.41,11.51C63.91.37,56.01-20.9,44.43-10.88s-1.37,15.3-3.21,23.37S25.43,18.26,28.05,28.17Z" fill="#1c4771" stroke="#000" stroke-miterlimit="10" stroke-width="1"/>
        <path id="Path_120" data-name="Path 120" d="M262.83,97.8c-2.2-10.01-10.48,2.13-17.48-14.96s5.61-22.21-4.15-27.5-14.05,14.68-24.15,13.64-23.11-19.72-38.64,10.57,31.33,21.55,39.37,33.02,15.03,33.06,27.03,23.54,2.01-15.23,4.2-23.21,16.02-5.1,13.82-15.11Z" fill="#1c4771" stroke="#000" stroke-miterlimit="10" stroke-width="1"/>
        <path id="Path_121" data-name="Path 121" d="M-8.62,78.24c8.42-5.84-5.95-8.89,7.19-21.85S21.25,53.13,22.43,42.1,3.5,34.69.62,24.95,10.07-3.92-23.85-6.76s-8.01,37.17-15.57,48.97S-64.28,68.68-50.91,76.16s14.85-3.93,23.06-4.95,10.81,12.87,19.23,7.03Z" fill="#1c4771" stroke="#000" stroke-miterlimit="10" stroke-width="1"/>
        <path id="Path_122" data-name="Path 122" d="M167.98,223.53c.09,10.25,10.7.08,14.02,18.24s-10.07,20.58-1.61,27.76,16.77-11.47,26.44-8.37,18.55,24.06,39.99-2.38-26.22-27.54-31.72-40.43-7.9-35.44-21.6-28.6-5.11,14.49-8.89,21.85-16.72,1.69-16.63,11.94Z" fill="#1c4771" stroke="#000" stroke-miterlimit="10" stroke-width="1"/>
      </g>
    </g>
  </g>
  <g id="Group_23" data-name="Group 23">
    <path id="Path_123" data-name="Path 123" d="M108.37,86.4v46.2H91.48V114.19l-5.74,9.04H76.9l-5.74-9.17V132.6H54.27V86.4H69.32l12.01,19.07L93.34,86.4h15.05Z" fill="#00e5ff" stroke="#1d1d1b" stroke-miterlimit="10" stroke-width="1"/>
    <path id="Path_124" data-name="Path 124" d="M127.97,132.6V116.83L110.75,86.41h19.8l6.14,16.23,6.2-16.23h19.8L145.4,116.83V132.6H127.98Z" fill="#00e5ff" stroke="#1d1d1b" stroke-miterlimit="10" stroke-width="1"/>
    <path id="Path_125" data-name="Path 125" d="M152.92,132.6l16.56-46.2h18.87l16.56,46.2H187.16l-1.52-5.28H172.18l-1.52,5.28H152.91Zm22.57-17.16h6.8l-1.98-7.13a49.139,49.139,0,0,1-1.39-6.93,46.459,46.459,0,0,1-1.39,6.93l-2.05,7.13Z" fill="#00e5ff" stroke="#1d1d1b" stroke-miterlimit="10" stroke-width="1"/>
    <path id="Path_126" data-name="Path 126" d="M240.36,86.4v15.18H228.48V132.6H210.93V101.58H199.05V86.4h41.31Z" fill="#00e5ff" stroke="#1d1d1b" stroke-miterlimit="10" stroke-width="1"/>
    <path id="Path_127" data-name="Path 127" d="M234.5,132.6l16.56-46.2h18.87l16.56,46.2H268.74l-1.52-5.28H253.76l-1.52,5.28H234.49Zm22.57-17.16h6.8l-1.98-7.13a49.141,49.141,0,0,1-1.39-6.93,46.461,46.461,0,0,1-1.39,6.93l-2.05,7.13Z" fill="#00e5ff" stroke="#1d1d1b" stroke-miterlimit="10" stroke-width="1"/>
  </g>
</svg>
