<svg id="спотифай" xmlns="http://www.w3.org/2000/svg" width="74" height="71.855" viewBox="0 0 74 71.855">
  <path id="Path_14" data-name="Path 14" d="M55.427,0H18.573A18.706,18.706,0,0,0,0,18.837V53.018A18.706,18.706,0,0,0,18.573,71.855H55.427A18.706,18.706,0,0,0,74,53.018V18.837A18.706,18.706,0,0,0,55.427,0Z" fill="#5fd9b4"/>
  <path id="Path_15" data-name="Path 15" d="M37,8.58a27.351,27.351,0,1,0,19.337,8.011A27.347,27.347,0,0,0,37,8.58ZM49.583,48.1a1.631,1.631,0,0,1-2.327.548c-6.427-3.967-14.494-4.786-24.067-2.6a1.691,1.691,0,1,1-.819-3.281C32.762,40.44,41.786,41.4,48.9,45.774A1.639,1.639,0,0,1,49.583,48.1Zm3.281-7.526a2.061,2.061,0,0,1-2.872.686c-7.384-4.515-18.6-5.882-27.212-3.146a2.077,2.077,0,0,1-1.231-3.967c9.982-3.01,22.276-1.505,30.768,3.694a1.94,1.94,0,0,1,.548,2.736Zm.271-7.655c-8.751-5.2-23.38-5.744-31.722-3.146a2.509,2.509,0,1,1-1.505-4.786c9.708-2.872,25.707-2.324,35.822,3.691a2.646,2.646,0,0,1,.957,3.555A2.848,2.848,0,0,1,53.135,32.917Z" fill="#7a6ab5"/>
</svg>
