<svg id="телега" xmlns="http://www.w3.org/2000/svg" width="74" height="71.855" viewBox="0 0 74 71.855">
  <path id="Path_17" data-name="Path 17" d="M55.427,0H18.573A18.706,18.706,0,0,0,0,18.837V53.018A18.706,18.706,0,0,0,18.573,71.855H55.427A18.706,18.706,0,0,0,74,53.018V18.837A18.706,18.706,0,0,0,55.427,0Z" fill="#00e5ff"/>
  <path id="Path_18" data-name="Path 18" d="M58.667,17.687a2.809,2.809,0,0,0-2.747-1.6,5.832,5.832,0,0,0-1.882.338c-.278.1-27.833,10.552-39.14,15.142a3.156,3.156,0,0,0-1.909,1.686,2.156,2.156,0,0,0,1.122,2.58c2.732,1.188,8.341,2.838,10.325,3.408a.3.3,0,0,1,.127.074.3.3,0,0,1,.076.125c.658,2.173,2.694,8.853,3.648,11.754A1.963,1.963,0,0,0,30.3,52.43h.245a1.065,1.065,0,0,0,.676-.362,1.026,1.026,0,0,0,.26-.594l.545-7.844a.3.3,0,0,1,.174-.25.3.3,0,0,1,.3.033l4.049,3.01c3.517,2.607,7.707,5.7,10.05,7.381A4.18,4.18,0,0,0,49,54.7,3.263,3.263,0,0,0,52,52.023c1.942-7.5,4.788-21.674,6.494-30.138l.383-1.847A3.536,3.536,0,0,0,58.667,17.687ZM30.121,41.05l-.407,5.87a.3.3,0,0,1-.063.22.3.3,0,0,1-.423.048.3.3,0,0,1-.112-.2c-1.224-3.919-2.693-8.758-2.693-8.824s-.027-.036-.033-.056v-.045L47.937,24.145a10.675,10.675,0,0,1,2.026-1.119c.754-.163.934.134.8.312a36.5,36.5,0,0,1-2.993,2.809L30.591,40.257a1.032,1.032,0,0,0-.47.793Z" fill="#fcf"/>
</svg>
