<svg id="яндекс" xmlns="http://www.w3.org/2000/svg" width="74" height="70.829" viewBox="0 0 74 70.829">
  <path id="Path_19" data-name="Path 19" d="M55.427,0H18.573A18.57,18.57,0,0,0,0,18.568V52.261A18.57,18.57,0,0,0,18.573,70.829H55.427A18.57,18.57,0,0,0,74,52.261V18.568A18.57,18.57,0,0,0,55.427,0Z" fill="#fcf"/>
  <path id="Path_20" data-name="Path 20" d="M47.629,22.024A20.424,20.424,0,0,1,57.946,37.679c1.474,11.657-5.468,21.563-16.59,24.186C29.86,64.578,17.9,56.071,16.117,44.142a22.123,22.123,0,0,1,3.746-16.092A21.2,21.2,0,0,1,33.6,19.311,21.98,21.98,0,0,1,45.48,20.758V34.124a10.51,10.51,0,0,0-8.6-4.239,10.364,10.364,0,0,0-6.067,2.026,10.744,10.744,0,0,0-3.805,5.239,11.042,11.042,0,0,0,3.455,12.058,10.549,10.549,0,0,0,17.068-8.266C47.594,34.643,47.6,28.336,47.629,22.024Z" fill="#ff0"/>
  <path id="Path_21" data-name="Path 21" d="M48.011,21.956c-.03,6.152-.036,12.307-.1,18.46a10,10,0,0,1-4.775,8.533,10.871,10.871,0,0,1-12.612-.465A10.461,10.461,0,0,1,30.882,31.6a11.059,11.059,0,0,1,14.937,2.16V8.457C50.377,9.825,59.2,12.465,59.2,12.465l-.336,9.415s-6.111-1.854-9.171-2.769c-.54-.162-1.084-.312-1.685-.486Z" fill="#ff3f7b"/>
</svg>
